<svg width="20.000000" height="17.000000" viewBox="0 0 20 17" fill="none" xmlns="http://www.w3.org/2000/svg" xmlns:xlink="http://www.w3.org/1999/xlink">
	<desc>
			Created with Pixso.
	</desc>
	<defs/>
	<path id="Mask" d="M18.75 6.75L3.91 6.75L8.45 1.29C8.9 0.76 8.83 -0.02 8.29 -0.47C7.76 -0.91 6.98 -0.84 6.54 -0.31L0.29 7.19C0.24 7.25 0.21 7.32 0.18 7.39C0.14 7.44 0.11 7.48 0.09 7.54C0.03 7.69 0 7.84 0 7.99C0 7.99 0 7.99 0 8C0 8 0 8 0 8C0 8.15 0.03 8.3 0.09 8.45C0.11 8.5 0.14 8.55 0.18 8.6C0.21 8.67 0.24 8.74 0.29 8.79L6.54 16.29C6.78 16.59 7.14 16.75 7.5 16.75C7.78 16.75 8.06 16.65 8.29 16.45C8.83 16.01 8.9 15.23 8.45 14.7L3.91 9.25L18.75 9.25C19.43 9.25 20 8.68 20 8C20 7.3 19.43 6.75 18.75 6.75Z" fill="#FFFFFF" fill-opacity="1.000000" fill-rule="evenodd"/>
</svg>
