<svg width="20.000000" height="17.000000" viewBox="0 0 20 17" fill="none" xmlns="http://www.w3.org/2000/svg" xmlns:xlink="http://www.w3.org/1999/xlink">
	<desc>
			Created with Pixso.
	</desc>
	<defs/>
	<path id="Mask" d="M1.25 9.25L16.08 9.25L11.54 14.7C11.09 15.23 11.16 16.01 11.7 16.45C12.23 16.9 13.01 16.83 13.46 16.29L19.71 8.8C19.75 8.74 19.78 8.67 19.82 8.6C19.84 8.55 19.88 8.51 19.9 8.45C19.96 8.3 19.99 8.15 19.99 8C19.99 8 20 8 20 8C20 7.99 19.99 7.99 19.99 7.99C19.99 7.84 19.96 7.69 19.9 7.54C19.88 7.48 19.84 7.44 19.82 7.39C19.78 7.32 19.75 7.25 19.71 7.19L13.46 -0.31C13.21 -0.6 12.85 -0.75 12.5 -0.75C12.21 -0.75 11.93 -0.66 11.7 -0.46C11.16 -0.02 11.09 0.77 11.54 1.3L16.08 6.75L1.25 6.75C0.55 6.75 0 7.31 0 8C0 8.68 0.55 9.25 1.25 9.25Z" fill="#FFFFFF" fill-opacity="1.000000" fill-rule="evenodd"/>
</svg>
