<svg xmlns="http://www.w3.org/2000/svg" xmlns:xlink="http://www.w3.org/1999/xlink" fill="none" viewBox="30 25 65 100">
	<defs>
		<filter id="filter_5_27208_dd" x="0.000000" y="0.000000" width="125.000000" height="152.277344" filterUnits="userSpaceOnUse" color-interpolation-filters="sRGB">
			<feFlood flood-opacity="0" result="BackgroundImageFix"/>
			<feColorMatrix in="SourceAlpha" type="matrix" values="0 0 0 0 0 0 0 0 0 0 0 0 0 0 0 0 0 0 127 0" result="hardAlpha"/>
			<feOffset dx="0" dy="5"/>
			<feGaussianBlur stdDeviation="10"/>
			<feComposite in2="hardAlpha" operator="out" k2="-1" k3="1"/>
			<feColorMatrix type="matrix" values="0 0 0 0 0 0 0 0 0 0 0 0 0 0 0 0 0 0 0.051 0"/>
			<feBlend mode="normal" in2="BackgroundImageFix" result="effect_dropShadow_1"/>
			<feBlend mode="normal" in="SourceGraphic" in2="effect_dropShadow_1" result="shape"/>
		</filter>
		<clipPath id="clip5_27218">
			<rect id="kraystil logo 1" width="45.714287" height="45.714287" transform="translate(40.000000 37.000000)" fill="white" fill-opacity="0"/>
		</clipPath>
	</defs>
	<rect id="Frame 37" width="65.000000" height="100.000000" transform="translate(30.000000 25.000000)" fill="#FFFFFF" fill-opacity="0"/>
	<g filter="url(#filter_5_27208_dd)">
		<path id="Rectangle" d="M40 25L85 25C90.52 25 95 29.47 95 35L95 112.26C95 116.81 89.42 119 86.33 115.67C79.45 108.26 73.74 102.11 66.16 93.94C64.18 91.81 60.81 91.81 58.83 93.94L38.66 115.67C35.57 119 30 116.81 30 112.26L30 35C30 29.47 34.47 25 40 25Z" fill="#747CA5" fill-opacity="1.000000" fill-rule="nonzero"/>
	</g>
	<rect id="kraystil logo 1" width="45.714287" height="45.714287" transform="translate(40.000000 37.000000)" fill="#FFFFFF" fill-opacity="0"/>
	<g clip-path="url(#clip5_27218)">
		<path id="Vector" d="M54.89 67.52C53.46 64.48 52.91 61.28 53.27 57.94C55.18 57.16 58.36 57.68 60.07 60.31C61.8 62.98 61.11 67 57.83 68.74C59.15 70.68 60.82 72.23 62.83 73.44C64.85 72.25 66.5 70.68 67.85 68.73C67.76 68.68 67.68 68.63 67.59 68.57C66.08 67.66 65.12 66.35 64.78 64.61C64.16 61.53 66.1 58.51 69.16 57.77C70.16 57.52 71.17 57.54 72.16 57.82C72.4 57.89 72.42 57.89 72.42 58.13C72.45 58.98 72.5 59.83 72.48 60.68C72.43 62.25 72.15 63.79 71.65 65.29C71.43 65.94 71.16 66.56 70.92 67.2C70.88 67.31 70.84 67.4 70.79 67.5C73.08 67.93 76.92 67.47 79.99 64.7C83.3 61.72 84.29 57.38 83.52 53.91C82.74 54.63 81.94 55.29 81.06 55.87C80.17 56.46 79.25 56.96 78.26 57.38C77.29 57.79 76.3 58.12 75.26 58.35C75.18 58.08 75.25 57.81 75.32 57.57C75.54 56.78 76.04 56.2 76.8 55.9C77.5 55.61 78.2 55.3 78.86 54.95C80.62 53.99 82.12 52.75 83.39 51.21C83.64 50.9 83.88 50.57 84.13 50.26C84.15 50.23 84.19 50.19 84.22 50.16C85.94 53.25 86.5 58.21 84.08 62.61C82.68 65.16 80.67 67.07 78.04 68.31C75.4 69.55 72.65 69.87 69.78 69.35C68.49 71.37 66.87 73.07 64.86 74.46C66.37 75.08 67.89 75.45 69.47 75.59C71.05 75.73 72.62 75.63 74.18 75.3C72.75 78.18 69.05 81.48 64.06 81.93C58.34 82.46 53.56 79.24 51.46 75.3C52.53 75.5 53.56 75.63 54.61 75.65C55.66 75.65 56.71 75.58 57.74 75.37C58.78 75.18 59.79 74.88 60.81 74.46C60.54 74.25 60.29 74.08 60.06 73.9C58.48 72.68 57.13 71.23 56.05 69.55C55.95 69.39 55.85 69.35 55.65 69.38C54.35 69.62 53.04 69.66 51.73 69.5C48.85 69.13 46.34 67.97 44.22 65.99C43.02 64.88 42.05 63.58 41.33 62.1C40.55 60.49 40.1 58.79 40 57C39.88 55.01 40.2 53.08 40.95 51.22C41.07 50.91 41.21 50.61 41.34 50.32C41.37 50.26 41.41 50.21 41.46 50.15C41.55 50.27 41.63 50.36 41.7 50.47C43.51 52.93 45.85 54.71 48.7 55.83C49.41 56.1 49.95 56.55 50.24 57.25C50.38 57.6 50.48 57.96 50.41 58.37C47.25 57.64 44.53 56.15 42.17 53.93C41.48 56.79 42.04 60.94 45.05 64.1C48.08 67.27 52.12 67.99 54.89 67.52ZM55.87 77.57C57.83 79.23 60.96 80.39 64.3 79.96C66.15 79.72 69.19 78.42 69.76 77.56C69.67 77.55 69.61 77.54 69.53 77.54C68.65 77.47 67.77 77.35 66.9 77.14C65.57 76.83 64.28 76.38 63.04 75.77C62.9 75.7 62.78 75.69 62.63 75.76C61.73 76.22 60.79 76.58 59.82 76.87C58.89 77.14 57.95 77.35 56.99 77.45C56.62 77.48 56.27 77.53 55.87 77.57ZM70.56 59.56C68.85 59.54 66.96 60.75 66.64 62.96C66.49 63.97 66.72 64.92 67.31 65.77C67.7 66.32 68.2 66.77 68.85 67.06C70.04 64.68 70.61 62.21 70.56 59.56ZM56.82 67.06C58.4 66.34 59.44 64.42 58.94 62.5C58.42 60.57 56.63 59.5 55.12 59.56C55.05 62.19 55.63 64.68 56.82 67.06Z" fill="#FFFFFF" fill-opacity="1.000000" fill-rule="nonzero"/>
		<path id="Vector" d="M62.83 45.42C62.87 45.35 62.92 45.3 62.95 45.24C64 43.59 65.5 42.54 67.39 42.06C69.75 41.46 72.1 40.85 74.46 40.23C75.76 39.89 77.07 39.56 78.37 39.22C78.45 39.19 78.53 39.18 78.64 39.16C78.64 39.28 78.65 39.41 78.64 39.51C78.5 40.54 77.77 41.37 76.76 41.64C73.72 42.42 70.68 43.18 67.66 44C65.82 44.49 64.6 45.7 64.05 47.52C63.58 49.07 63.84 50.55 64.75 51.88C65.52 53.01 66.61 53.72 67.95 54C70.15 54.46 72.38 53.41 73.46 51.47C73.88 50.71 74.11 49.88 74.11 49.02C74.11 48.51 74.19 48.04 74.44 47.6C74.72 47.15 75.08 46.79 75.61 46.56C75.68 46.75 75.74 46.93 75.79 47.1C76.9 51.26 74.19 55.27 70.15 55.94C69.58 56.03 69.01 56.11 68.46 56.26C67.16 56.62 66.06 57.29 65.12 58.26C64.55 58.85 64.08 59.5 63.73 60.24C63.55 60.63 63.32 61 63.03 61.32C62.97 61.38 62.9 61.45 62.82 61.53C62.44 61.18 62.16 60.78 61.95 60.32C61.36 59.07 60.49 58.04 59.34 57.25C58.36 56.59 57.27 56.16 56.1 56.02C54.93 55.89 53.83 55.57 52.85 54.9C50.95 53.65 49.88 51.88 49.63 49.62C49.53 48.64 49.64 47.69 49.94 46.76C49.96 46.69 49.99 46.62 50.03 46.54C50.47 46.72 50.79 47.02 51.07 47.37C51.43 47.86 51.53 48.43 51.53 49.03C51.54 49.99 51.81 50.89 52.33 51.7C53.18 53.02 54.39 53.81 55.93 54.04C58.08 54.36 60.11 53.3 61.14 51.5C62.66 48.83 61.52 45.57 58.91 44.33C58.36 44.07 57.76 43.92 57.17 43.77C54.58 43.1 52 42.43 49.41 41.76C49.22 41.72 49.02 41.66 48.83 41.61C47.83 41.35 47.03 40.37 47 39.34C47 39.28 47.02 39.24 47.02 39.15C47.16 39.18 47.29 39.22 47.43 39.25C50.54 40.05 53.66 40.86 56.77 41.66C57.46 41.83 58.13 41.99 58.8 42.21C60.44 42.72 61.71 43.72 62.66 45.16C62.7 45.24 62.76 45.33 62.83 45.42ZM62.83 52.46C62.11 53.71 61.13 54.62 59.86 55.28C61.05 55.99 62.02 56.88 62.83 57.98C63.25 57.41 63.67 56.9 64.19 56.48C64.69 56.06 65.22 55.67 65.75 55.26C64.52 54.61 63.56 53.68 62.83 52.46Z" fill="#FFFFFF" fill-opacity="1.000000" fill-rule="nonzero"/>
		<path id="Vector" d="M77.17 42.81C77.18 43.32 77.07 43.75 76.83 44.13C76.44 44.77 75.88 45.17 75.15 45.35C74.17 45.61 73.2 45.87 72.22 46.12C71.15 46.39 70.07 46.67 69 46.95C68.68 47.04 68.35 47.13 68.05 47.27C67.33 47.62 66.96 48.48 67.06 49.19C67.19 50.02 67.78 50.65 68.58 50.83C69.53 51.05 70.63 50.45 70.87 49.31C70.99 48.77 71.23 48.29 71.61 47.89C71.82 47.68 72.24 47.42 72.5 47.37C72.64 47.6 72.7 47.85 72.75 48.12C72.98 49.17 72.81 50.16 72.24 51.06C71.67 51.95 70.85 52.52 69.82 52.75C68.09 53.14 66.3 52.34 65.51 50.73C64.87 49.42 64.94 48.1 65.73 46.85C66.31 45.92 67.16 45.41 68.2 45.15C69.65 44.78 71.09 44.41 72.53 44.03C73.77 43.71 75.03 43.38 76.27 43.05C76.58 42.96 76.85 42.89 77.17 42.81Z" fill="#FFFFFF" fill-opacity="1.000000" fill-rule="nonzero"/>
		<path id="Vector" d="M48.48 42.81C48.86 42.9 49.19 42.98 49.51 43.06C50.56 43.34 51.62 43.61 52.67 43.88C53.93 44.21 55.18 44.54 56.44 44.89C56.82 44.99 57.19 45.09 57.57 45.18C58.63 45.43 59.43 46.05 60 46.95C60.32 47.45 60.5 48.02 60.54 48.63C60.57 49.27 60.5 49.88 60.24 50.48C59.82 51.44 59.13 52.13 58.16 52.54C57.69 52.75 57.2 52.84 56.7 52.84C55.94 52.85 55.22 52.63 54.56 52.21C53.67 51.64 53.12 50.83 52.88 49.82C52.71 49.1 52.77 48.02 53.15 47.35C53.43 47.43 53.66 47.58 53.87 47.76C54.36 48.17 54.66 48.71 54.79 49.34C54.9 49.94 55.25 50.37 55.79 50.66C56.88 51.24 58.25 50.61 58.55 49.36C58.78 48.42 58.14 47.34 57.15 47.09C55.32 46.62 53.5 46.13 51.66 45.65C51.19 45.53 50.72 45.42 50.27 45.27C49.31 44.97 48.73 44.3 48.54 43.31C48.51 43.16 48.5 43 48.48 42.81Z" fill="#FFFFFF" fill-opacity="1.000000" fill-rule="nonzero"/>
		<path id="Vector" d="M50.39 60.61C50.07 60.65 48.81 60.32 47.56 59.88C46.64 59.55 45.75 59.14 44.85 58.67C44.95 59.18 45.13 59.6 45.34 60.02C45.91 61.2 46.7 62.22 47.71 63.05C48.73 63.88 49.87 64.47 51.13 64.8C51.91 65 52.51 65.43 52.87 66.18C52.89 66.22 52.9 66.28 52.94 66.37C52.81 66.37 52.71 66.39 52.61 66.38C50.8 66.22 49.14 65.67 47.63 64.66C46.58 63.95 45.68 63.07 44.96 62.02C44.17 60.88 43.63 59.62 43.36 58.25C43.23 57.54 43.12 56.81 43.18 56.06C43.23 56.08 43.27 56.08 43.29 56.1C44.22 56.8 45.22 57.38 46.26 57.89C47.09 58.3 47.96 58.62 48.85 58.92C49.6 59.17 50.24 59.87 50.39 60.61Z" fill="#FFFFFF" fill-opacity="1.000000" fill-rule="nonzero"/>
		<path id="Vector" d="M82.47 56.04C82.68 61.36 78.3 66.23 72.73 66.37C72.83 66.11 72.95 65.87 73.13 65.66C73.51 65.23 73.97 64.94 74.52 64.81C75.26 64.62 75.97 64.34 76.64 63.96C77.59 63.43 78.42 62.74 79.13 61.9C79.86 61.03 80.39 60.05 80.75 58.98C80.79 58.89 80.8 58.78 80.83 58.66C79.05 59.59 77.24 60.29 75.26 60.67C75.33 60.29 75.49 59.99 75.71 59.73C76.06 59.27 76.54 59.01 77.08 58.84C78.4 58.42 79.66 57.85 80.84 57.12C81.33 56.81 81.81 56.48 82.3 56.16C82.35 56.11 82.4 56.09 82.47 56.04Z" fill="#FFFFFF" fill-opacity="1.000000" fill-rule="nonzero"/>
		<path id="Vector" d="M56.6 40.69C59.51 37.12 65.69 36.74 69.09 40.69C69.05 40.71 69 40.75 68.96 40.76C68.35 40.92 67.75 41.06 67.14 41.22C66.99 41.26 66.89 41.25 66.76 41.14C66.23 40.72 65.63 40.41 65 40.19C64.4 39.98 63.79 39.84 63.16 39.82C61.96 39.76 60.83 40.03 59.77 40.6C59.47 40.76 59.2 40.95 58.93 41.14C58.82 41.22 58.72 41.26 58.6 41.22C57.95 41.05 57.29 40.88 56.64 40.72C56.62 40.72 56.61 40.7 56.6 40.69Z" fill="#FFFFFF" fill-opacity="1.000000" fill-rule="nonzero"/>
		<path id="Vector" d="M67.51 78.35C64.39 79.79 61.3 79.78 58.15 78.35C58.37 78.2 58.57 78.17 58.77 78.16C59.14 78.13 59.51 78.18 59.87 78.29C60.55 78.51 61.24 78.65 61.95 78.72C62.62 78.78 63.3 78.76 63.97 78.69C64.63 78.62 65.27 78.46 65.91 78.26C66.39 78.1 66.88 78.1 67.36 78.25C67.39 78.26 67.43 78.27 67.46 78.28C67.46 78.29 67.47 78.32 67.51 78.35Z" fill="#FFFFFF" fill-opacity="1.000000" fill-rule="nonzero"/>
	</g>
</svg>