<svg width="295.000000" height="329.000000" viewBox="0 0 295 329" fill="none" xmlns="http://www.w3.org/2000/svg" xmlns:xlink="http://www.w3.org/1999/xlink">
	<desc>
			Created with Pixso.
	</desc>
	<defs>
		<filter id="filter_48_23393_dd" x="-0.721375" y="-0.614197" width="295.512207" height="328.624573" filterUnits="userSpaceOnUse" color-interpolation-filters="sRGB">
			<feFlood flood-opacity="0" result="BackgroundImageFix"/>
			<feColorMatrix in="SourceAlpha" type="matrix" values="0 0 0 0 0 0 0 0 0 0 0 0 0 0 0 0 0 0 127 0" result="hardAlpha"/>
			<feOffset dx="0" dy="5"/>
			<feGaussianBlur stdDeviation="10"/>
			<feComposite in2="hardAlpha" operator="out" k2="-1" k3="1"/>
			<feColorMatrix type="matrix" values="0 0 0 0 0 0 0 0 0 0 0 0 0 0 0 0 0 0 0.051 0"/>
			<feBlend mode="normal" in2="BackgroundImageFix" result="effect_dropShadow_1"/>
			<feBlend mode="normal" in="SourceGraphic" in2="effect_dropShadow_1" result="shape"/>
		</filter>
	</defs>
	<g filter="url(#filter_48_23393_dd)">
		<path id="Vector" d="M263.43 204.76C263.43 204.76 256.79 194.56 235.9 197.11C215 199.67 170.13 208.3 152.27 211.38C134.41 214.46 106.91 234.29 100.8 247.07C94.68 259.84 99.27 267.46 138.02 269.5C176.77 271.54 230.23 239.93 247.11 230.19C263.99 220.45 262.4 209.85 263.43 204.76Z" fill="#444444" fill-opacity="1.000000" fill-rule="nonzero"/>
		<path id="Vector" d="M235.9 197.11C215 199.67 170.13 208.3 152.27 211.38C134.41 214.46 106.91 234.29 100.8 247.07C94.68 259.84 99.27 267.46 138.02 269.5C176.77 271.54 230.23 239.93 247.11 230.19C263.99 220.45 262.4 209.85 263.43 204.76C263.43 204.76 256.79 194.56 235.9 197.11Z" stroke="#444444" stroke-opacity="1.000000" stroke-width="1.000000" stroke-linejoin="round"/>
		<path id="Vector" d="M158.82 61.31C158.82 61.31 147.99 82.16 143.98 86.19C141.85 88.52 139.24 90.38 136.33 91.62C133.42 92.87 130.28 93.48 127.11 93.41C119.1 93.41 90.55 89.61 80.92 108.07C71.29 126.54 68.93 181.29 69.34 184.5C69.75 187.72 44.86 208.99 45.66 235.11C46.47 261.24 74.15 276.04 113.08 270.43C152.01 264.82 162.03 235.9 162.03 219.05C162.03 202.2 170.46 192.97 179.69 175.28C188.93 157.6 202.56 139.17 198.14 123.51C193.73 107.85 176.89 100.63 171.27 98.62C165.65 96.61 181.7 78.1 177.68 68.92C173.66 59.75 165.65 56.08 158.82 61.31Z" fill="#747CA5" fill-opacity="1.000000" fill-rule="nonzero"/>
		<g opacity="0.130000">
			<path id="Vector" d="M157.52 177.25C140.44 183.59 126.32 177.68 107.54 172.19C88.76 166.71 96.78 153.21 96.78 139.3C96.78 125.39 80.36 144.36 80.36 144.36L71.19 154.01C70.05 164.14 69.44 174.32 69.37 184.5C69.72 187.38 49.88 204.68 46.25 226.9C55.47 227.98 64.75 228.49 74.03 228.45C112.63 228.45 158.74 208.63 163.24 199.34C167.46 190.6 174.37 169.25 175.18 166.69C174.74 167.76 172.24 171.8 157.52 177.25Z" fill="#444444" fill-opacity="1.000000" fill-rule="nonzero"/>
		</g>
		<path id="Vector" d="M143.98 86.19C141.85 88.52 139.24 90.38 136.33 91.62C133.42 92.87 130.28 93.48 127.11 93.41C119.1 93.41 90.55 89.61 80.92 108.07C71.29 126.54 68.93 181.29 69.34 184.5C69.75 187.72 44.86 208.99 45.66 235.11C46.47 261.24 74.15 276.04 113.08 270.43C152.01 264.82 162.03 235.9 162.03 219.05C162.03 202.2 170.46 192.97 179.69 175.28C188.93 157.6 202.56 139.17 198.14 123.51C193.73 107.85 176.89 100.63 171.27 98.62C165.65 96.61 181.7 78.1 177.68 68.92C173.66 59.75 165.65 56.08 158.82 61.31C158.82 61.31 147.99 82.16 143.98 86.19Z" stroke="#444444" stroke-opacity="1.000000" stroke-width="1.000000" stroke-linejoin="round"/>
		<path id="Vector" d="M185.71 142.77C185.71 142.77 176.48 148.79 175.67 154.4C174.86 160 176.87 172.06 169.26 178.48C161.64 184.91 156.02 184.9 156.02 184.9" stroke="#444444" stroke-opacity="1.000000" stroke-width="1.000000" stroke-linejoin="round" stroke-linecap="round"/>
		<path id="Vector" d="M87.6 162.64C87.6 162.64 87.6 177.12 104.86 178.22" stroke="#444444" stroke-opacity="1.000000" stroke-width="1.000000" stroke-linejoin="round" stroke-linecap="round"/>
		<path id="Vector" d="M140.5 142.03C143.03 147.99 145.07 154.14 146.62 160.43" stroke="#444444" stroke-opacity="1.000000" stroke-width="1.000000" stroke-linejoin="round" stroke-linecap="round"/>
		<path id="Vector" d="M162.62 211.75C164.66 199.14 171.88 190.22 179.69 175.27C180.92 172.9 182.25 170.52 183.59 168.13C176.29 170.99 175.08 169.13 175.08 169.13C171.62 177.2 167 180.28 167 180.28L154.43 214.87L162.62 211.75Z" fill="#FFFFFF" fill-opacity="1.000000" fill-rule="nonzero"/>
		<path id="Vector" d="M179.69 175.27C180.92 172.9 182.25 170.52 183.59 168.13C176.29 170.99 175.08 169.13 175.08 169.13C171.62 177.2 167 180.28 167 180.28L154.43 214.87L162.62 211.75C164.66 199.14 171.88 190.22 179.69 175.27Z" stroke="#444444" stroke-opacity="1.000000" stroke-width="1.000000" stroke-linejoin="round"/>
		<path id="Vector" d="M50.41 213.46C47.19 220.2 45.57 227.6 45.66 235.07C46.46 261.15 74.15 275.99 113.08 270.39C152.01 264.78 162.03 235.86 162.03 219.01C162.01 213.84 162.9 208.69 164.67 203.83C91.44 220.2 61.99 217.48 50.41 213.46Z" fill="#444444" fill-opacity="1.000000" fill-rule="nonzero"/>
		<path id="Vector" d="M45.66 235.07C46.46 261.15 74.15 275.99 113.08 270.39C152.01 264.78 162.03 235.86 162.03 219.01C162.01 213.84 162.9 208.69 164.67 203.83C91.44 220.2 61.99 217.48 50.41 213.46C47.19 220.2 45.57 227.6 45.66 235.07Z" stroke="#444444" stroke-opacity="1.000000" stroke-width="1.000000" stroke-linejoin="round"/>
		<path id="Vector" d="M134.39 183.22L124.37 161.33C124.29 161.17 124.18 161.02 124.05 160.9C123.92 160.78 123.76 160.68 123.59 160.62C123.25 160.49 122.88 160.51 122.55 160.66C122.22 160.81 121.96 161.09 121.83 161.43C121.71 161.77 121.72 162.15 121.88 162.48L131.92 184.28L134.39 183.22Z" fill="#FFFFFF" fill-opacity="1.000000" fill-rule="nonzero"/>
		<path id="Vector" d="M124.37 161.33C124.29 161.17 124.18 161.02 124.05 160.9C123.92 160.78 123.76 160.68 123.59 160.62C123.25 160.49 122.88 160.51 122.55 160.66C122.22 160.81 121.96 161.09 121.83 161.43C121.71 161.77 121.72 162.15 121.88 162.48L131.92 184.28L134.39 183.22L124.37 161.33Z" stroke="#444444" stroke-opacity="1.000000" stroke-width="1.000000" stroke-linejoin="round"/>
		<path id="Vector" d="M134.34 186.35L134.39 183.22L131.92 184.35L134.34 186.35Z" stroke="#444444" stroke-opacity="1.000000" stroke-width="1.000000" stroke-linejoin="round"/>
		<path id="Vector" d="M122.55 160.73C122.38 160.81 122.24 160.91 122.11 161.04C121.99 161.18 121.9 161.33 121.83 161.5C121.77 161.67 121.74 161.85 121.75 162.03C121.76 162.21 121.8 162.39 121.88 162.55L122.89 164.75L125.38 163.62L124.37 161.4C124.29 161.24 124.18 161.09 124.05 160.97C123.92 160.85 123.76 160.75 123.6 160.69C123.43 160.63 123.25 160.6 123.07 160.6C122.89 160.61 122.71 160.65 122.55 160.73Z" fill="#FFFFFF" fill-opacity="1.000000" fill-rule="nonzero"/>
		<path id="Vector" d="M122.11 161.04C121.99 161.18 121.9 161.33 121.83 161.5C121.77 161.67 121.74 161.85 121.75 162.03C121.76 162.21 121.8 162.39 121.88 162.55L122.89 164.75L125.38 163.62L124.37 161.4C124.29 161.24 124.18 161.09 124.05 160.97C123.92 160.85 123.76 160.75 123.6 160.69C123.43 160.63 123.25 160.6 123.07 160.6C122.89 160.61 122.71 160.65 122.55 160.73C122.38 160.81 122.24 160.91 122.11 161.04Z" stroke="#444444" stroke-opacity="1.000000" stroke-width="1.000000" stroke-linejoin="round"/>
		<path id="Vector" d="M119.89 95.81C114.67 94.02 109.12 93.41 103.63 94.03C98.15 94.66 92.87 96.5 88.19 99.43C72.14 109.45 57.88 139.26 51.86 149.69C45.84 160.13 25.87 204.76 30.45 205.77C32.83 206.31 107.86 192.09 114.28 191.72C120.71 191.36 129.52 187.31 129.52 187.31C129.52 187.31 133.54 191.72 135.55 189.71C137.56 187.7 131.93 177.28 129.13 174.07C126.32 170.85 122.71 169.65 120.7 171.26C118.69 172.88 106.26 184.5 106.26 184.5L57.97 182.83L97.83 130.72L119.89 95.81Z" fill="#747CA5" fill-opacity="1.000000" fill-rule="nonzero"/>
		<g opacity="0.130000">
			<path id="Vector" d="M126.28 177.68C120.15 172.55 115.78 180.56 110.82 184.61C105.87 188.66 97.34 188.21 71.27 188.21C45.2 188.21 44.28 189.11 42.04 190.45C39.79 191.79 46.54 171.58 63.17 152.69C79.8 133.8 90.14 118.08 90.14 105.94C90.14 102.03 88.78 100.47 86.96 100.22C71.39 110.94 57.69 139.53 51.82 149.69C45.8 160.13 25.83 204.76 30.41 205.77C32.79 206.31 107.82 192.09 114.24 191.72C120.67 191.36 129.48 187.31 129.48 187.31C130.06 187.91 130.68 188.47 131.34 188.98C131.98 185.05 130.21 180.95 126.28 177.68Z" fill="#444444" fill-opacity="1.000000" fill-rule="nonzero"/>
		</g>
		<path id="Vector" d="M119.89 95.81C114.67 94.02 109.12 93.41 103.63 94.03C98.15 94.66 92.87 96.5 88.19 99.43C72.14 109.45 57.88 139.26 51.86 149.69C45.84 160.13 25.87 204.76 30.45 205.77C32.83 206.31 107.86 192.09 114.28 191.72C120.71 191.36 129.52 187.31 129.52 187.31C129.52 187.31 133.54 191.72 135.55 189.71C137.56 187.7 131.93 177.28 129.13 174.07C126.32 170.85 122.71 169.65 120.7 171.26C118.69 172.88 106.26 184.5 106.26 184.5L57.97 182.83L97.83 130.72" stroke="#444444" stroke-opacity="1.000000" stroke-width="1.000000" stroke-linejoin="round" stroke-linecap="round"/>
		<path id="Vector" d="M129.52 187.31C129.52 187.31 133.54 191.72 135.55 189.71C137.56 187.7 131.93 177.28 129.13 174.07C126.32 170.85 122.71 169.65 120.7 171.26C118.69 172.88 106.26 184.5 106.26 184.5L57.97 182.83L70.05 167.04C62.1 165.21 54.67 161.61 48.32 156.49C40.37 172.6 26.55 204.91 30.45 205.73C32.83 206.26 107.86 192.05 114.28 191.68C120.71 191.31 129.52 187.31 129.52 187.31Z" fill="#FFFFFF" fill-opacity="1.000000" fill-rule="nonzero"/>
		<path id="Vector" d="M126.28 177.68C120.15 172.55 115.78 180.56 110.82 184.61C105.87 188.66 97.34 188.21 71.27 188.21C45.2 188.21 44.28 189.11 42.04 190.45C40.15 191.59 44.62 177.44 56.02 161.73C53.28 160.24 50.69 158.51 48.27 156.55C40.33 172.66 26.51 204.96 30.41 205.79C32.79 206.32 107.82 192.11 114.24 191.74C120.67 191.37 129.48 187.32 129.48 187.32C130.06 187.93 130.68 188.48 131.34 188.99C131.98 185.05 130.21 180.95 126.28 177.68Z" fill="#747CA5" fill-opacity="1.000000" fill-rule="nonzero"/>
		<g opacity="0.700000">
			<path id="Vector" d="M126.28 177.68C120.15 172.55 115.78 180.56 110.82 184.61C105.87 188.66 97.34 188.21 71.27 188.21C45.2 188.21 44.28 189.11 42.04 190.45C40.15 191.59 44.62 177.44 56.02 161.73C53.28 160.24 50.69 158.51 48.27 156.55C40.33 172.66 26.51 204.96 30.41 205.79C32.79 206.32 107.82 192.11 114.24 191.74C120.67 191.37 129.48 187.32 129.48 187.32C130.06 187.93 130.68 188.48 131.34 188.99C131.98 185.05 130.21 180.95 126.28 177.68Z" fill="#FFFFFF" fill-opacity="1.000000" fill-rule="nonzero"/>
		</g>
		<path id="Vector" d="M135.55 189.71C137.56 187.7 131.93 177.28 129.13 174.07C126.32 170.85 122.71 169.65 120.7 171.26C118.69 172.88 106.26 184.5 106.26 184.5L57.97 182.83L70.05 167.04C62.1 165.21 54.67 161.61 48.32 156.49C40.37 172.6 26.55 204.91 30.45 205.73C32.83 206.26 107.86 192.05 114.28 191.68C120.71 191.31 129.52 187.31 129.52 187.31C129.52 187.31 133.54 191.72 135.55 189.71Z" stroke="#444444" stroke-opacity="1.000000" stroke-width="1.000000" stroke-linejoin="round"/>
		<path id="Vector" d="M127.11 184.5L94.62 217L145.98 223.43L174.47 198.95L127.11 184.5Z" fill="#FFFFFF" fill-opacity="1.000000" fill-rule="nonzero"/>
		<g opacity="0.360000">
			<path id="Vector" d="M127.11 184.5L94.62 217L145.98 223.43L174.47 198.95L127.11 184.5Z" fill="#444444" fill-opacity="1.000000" fill-rule="nonzero"/>
		</g>
		<path id="Vector" d="M94.62 217L145.98 223.43L174.47 198.95L127.11 184.5L94.62 217Z" stroke="#444444" stroke-opacity="1.000000" stroke-width="1.000000" stroke-linejoin="round"/>
		<path id="Vector" d="M126.32 177.68L127.11 184.5L94.62 217L93.02 213.39L126.32 177.68Z" fill="#FFFFFF" fill-opacity="1.000000" fill-rule="nonzero"/>
		<path id="Vector" d="M127.11 184.5L94.62 217L93.02 213.39L126.32 177.68L127.11 184.5Z" stroke="#444444" stroke-opacity="1.000000" stroke-width="1.000000" stroke-linejoin="round"/>
		<path id="Vector" d="M127.11 184.5L174.47 198.95L176.89 194.13L126.32 177.68L127.11 184.5Z" fill="#FFFFFF" fill-opacity="1.000000" fill-rule="nonzero"/>
		<path id="Vector" d="M174.47 198.95L176.89 194.13L126.32 177.68L127.11 184.5L174.47 198.95Z" stroke="#444444" stroke-opacity="1.000000" stroke-width="1.000000" stroke-linejoin="round"/>
		<path id="Vector" d="M162.31 212.68C162.31 212.68 154.21 213.65 154.43 214.87C154.65 216.09 161.27 215.84 162.73 215.84C164.2 215.84 166.56 212.41 162.31 212.68Z" fill="#FFFFFF" fill-opacity="1.000000" fill-rule="nonzero"/>
		<path id="Vector" d="M154.43 214.87C154.65 216.09 161.27 215.84 162.73 215.84C164.2 215.84 166.56 212.41 162.31 212.68C162.31 212.68 154.21 213.65 154.43 214.87Z" stroke="#444444" stroke-opacity="1.000000" stroke-width="1.000000" stroke-linejoin="round"/>
		<path id="Vector" d="M165.17 209.49C165.17 209.49 154.96 210.57 155.22 211.91C155.48 213.25 163.83 212.98 165.7 212.98C167.57 212.98 170.53 209.22 165.17 209.49Z" fill="#FFFFFF" fill-opacity="1.000000" fill-rule="nonzero"/>
		<path id="Vector" d="M155.22 211.91C155.48 213.25 163.83 212.98 165.7 212.98C167.57 212.98 170.53 209.22 165.17 209.49C165.17 209.49 154.96 210.57 155.22 211.91Z" stroke="#444444" stroke-opacity="1.000000" stroke-width="1.000000" stroke-linejoin="round"/>
		<path id="Vector" d="M168.68 206.26C168.68 206.26 158.48 207.34 158.74 208.69C159 210.03 167.34 209.77 169.22 209.77C171.09 209.77 174.03 206 168.68 206.26Z" fill="#FFFFFF" fill-opacity="1.000000" fill-rule="nonzero"/>
		<path id="Vector" d="M158.74 208.69C159 210.03 167.34 209.77 169.22 209.77C171.09 209.77 174.03 206 168.68 206.26C168.68 206.26 158.48 207.34 158.74 208.69Z" stroke="#444444" stroke-opacity="1.000000" stroke-width="1.000000" stroke-linejoin="round"/>
		<path id="Vector" d="M169.19 203.05C169.19 203.05 158.98 204.12 159.26 205.47C159.53 206.83 167.85 206.54 169.72 206.54C171.6 206.54 174.56 202.83 169.19 203.05Z" fill="#FFFFFF" fill-opacity="1.000000" fill-rule="nonzero"/>
		<path id="Vector" d="M159.26 205.47C159.53 206.83 167.85 206.54 169.72 206.54C171.6 206.54 174.56 202.83 169.19 203.05C169.19 203.05 158.98 204.12 159.26 205.47Z" stroke="#444444" stroke-opacity="1.000000" stroke-width="1.000000" stroke-linejoin="round"/>
		<path id="Vector" d="M47.85 240.45C47.85 240.45 43.27 229.23 57.55 219.55C71.83 209.86 125.27 203.73 138.02 208.84C150.76 213.94 199.2 253.7 199.2 253.7L193.07 259.81C193.07 259.81 155.85 260.82 140.05 256.75C124.26 252.67 118.07 250.7 118.07 250.7C118.07 250.7 104.82 269.57 86.46 270.07M48.29 240.25L48.31 240.26C48.42 240.52 48.3 240.8 48.04 240.91C47.78 241.01 47.49 240.89 47.39 240.63L47.4 240.61L48.29 240.25ZM86.5 270.55L86.48 270.57C86.2 270.58 85.97 270.37 85.96 270.09C85.96 269.81 86.17 269.58 86.45 269.57L86.47 269.59L86.5 270.55Z" fill="#444444" fill-opacity="1.000000" fill-rule="nonzero"/>
		<path id="Vector" d="M47.85 240.45C47.85 240.45 43.27 229.23 57.55 219.55C71.83 209.86 125.27 203.73 138.02 208.84C150.76 213.94 199.2 253.7 199.2 253.7L193.07 259.81C193.07 259.81 155.85 260.82 140.05 256.75C124.26 252.67 118.07 250.7 118.07 250.7C118.07 250.7 104.82 269.57 86.46 270.07" stroke="#444444" stroke-opacity="1.000000" stroke-width="1.000000" stroke-linejoin="round" stroke-linecap="round"/>
		<path id="Vector" d="M193.59 263.38C204.34 267.73 215.67 270.5 227.22 271.59C245.58 273.12 251.19 258.34 251.19 253.81C251.19 249.28 243.54 250.24 235.9 251.25C228.25 252.26 209.39 253.29 204.79 252.78C200.2 252.28 187.98 254.21 193.59 263.38Z" fill="#FFFFFF" fill-opacity="1.000000" fill-rule="nonzero"/>
		<path id="Vector" d="M227.22 271.59C245.58 273.12 251.19 258.34 251.19 253.81C251.19 249.28 243.54 250.24 235.9 251.25C228.25 252.26 209.39 253.29 204.79 252.78C200.2 252.28 187.98 254.21 193.59 263.38C204.34 267.73 215.67 270.5 227.22 271.59Z" stroke="#444444" stroke-opacity="1.000000" stroke-width="1.000000" stroke-linejoin="round"/>
		<path id="Vector" d="M237.93 203.23C237.93 203.23 216.05 202.71 204.29 214.44C192.52 226.18 166.56 258.79 160.45 264.92C154.33 271.04 129.86 269.5 124.76 269.02C119.66 268.54 114.56 264.92 107.43 267.99C100.31 271.07 91.11 276.2 89.58 282.78C88.05 289.36 87.04 291.96 90.09 292.46C93.14 292.97 109.47 290.37 118.07 290.37C126.68 290.37 147.64 288.84 159.89 285.28C172.13 281.73 207.29 260.8 221.05 252.65C234.81 244.49 259.35 229.71 263.37 215.95C267.4 202.19 256.74 199.12 250.63 200.14M237.92 202.75L237.94 202.73C238.22 202.73 238.44 202.96 238.43 203.24C238.43 203.52 238.2 203.73 237.92 203.73L237.9 203.71L237.92 202.75ZM250.72 200.61L250.71 200.63C250.43 200.68 250.18 200.49 250.13 200.22C250.09 199.94 250.27 199.69 250.54 199.64L250.57 199.66L250.72 200.61Z" fill="#444444" fill-opacity="1.000000" fill-rule="nonzero"/>
		<path id="Vector" d="M237.93 203.23C237.93 203.23 216.05 202.71 204.29 214.44C192.52 226.18 166.56 258.79 160.45 264.92C154.33 271.04 129.86 269.5 124.76 269.02C119.66 268.54 114.56 264.92 107.43 267.99C100.31 271.07 91.11 276.2 89.58 282.78C88.05 289.36 87.04 291.96 90.09 292.46C93.14 292.97 109.47 290.37 118.07 290.37C126.68 290.37 147.64 288.84 159.89 285.28C172.13 281.73 207.29 260.8 221.05 252.65C234.81 244.49 259.35 229.71 263.37 215.95C267.4 202.19 256.74 199.12 250.63 200.14" stroke="#444444" stroke-opacity="1.000000" stroke-width="1.000000" stroke-linejoin="round" stroke-linecap="round"/>
		<path id="Vector" d="M166.97 261.73C166.97 261.73 196.38 217.96 211.43 209.75C226.47 201.55 242.88 202.91 242.88 202.91" stroke="#FFFFFF" stroke-opacity="1.000000" stroke-width="1.000000" stroke-linejoin="round" stroke-linecap="round"/>
		<path id="Vector" d="M155.65 267.49C146.24 270.51 128.95 269.4 124.76 268.99C119.66 268.49 114.56 264.89 107.43 267.97C100.31 271.04 91.11 276.17 89.58 282.75C88.05 289.33 87.04 291.93 90.09 292.44C93.14 292.94 109.47 290.37 118.07 290.37C126.68 290.37 147.64 288.84 159.89 285.28C163.35 284.16 166.72 282.79 169.98 281.18C166.48 274.79 160.09 270.14 155.65 267.49Z" fill="#FFFFFF" fill-opacity="1.000000" fill-rule="nonzero"/>
		<path id="Vector" d="M124.76 268.99C119.66 268.49 114.56 264.89 107.43 267.97C100.31 271.04 91.11 276.17 89.58 282.75C88.05 289.33 87.04 291.93 90.09 292.44C93.14 292.94 109.47 290.37 118.07 290.37C126.68 290.37 147.64 288.84 159.89 285.28C163.35 284.16 166.72 282.79 169.98 281.18C166.48 274.79 160.09 270.14 155.65 267.49C146.24 270.51 128.95 269.4 124.76 268.99Z" stroke="#444444" stroke-opacity="1.000000" stroke-width="1.000000" stroke-linejoin="round"/>
		<path id="Vector" d="M140.05 268.99C140.05 268.99 149.23 273.09 151.27 277.65C153.31 282.2 154.84 286.32 154.84 287.85C154.84 289.38 171.66 285.31 176.72 280.21C181.79 275.1 168.52 261.35 163.98 261.35C159.44 261.35 158.37 262.88 152.76 264.4C147.15 265.91 139.03 264.92 140.05 268.99Z" fill="#FFFFFF" fill-opacity="1.000000" fill-rule="nonzero"/>
		<path id="Vector" d="M151.27 277.65C153.31 282.2 154.84 286.32 154.84 287.85C154.84 289.38 171.66 285.31 176.72 280.21C181.79 275.1 168.52 261.35 163.98 261.35C159.44 261.35 158.37 262.88 152.76 264.4C147.15 265.91 139.03 264.92 140.05 268.99C140.05 268.99 149.23 273.09 151.27 277.65Z" stroke="#444444" stroke-opacity="1.000000" stroke-width="1.000000" stroke-linejoin="round"/>
		<path id="Vector" d="M118.07 250.7C118.07 250.7 106.86 245.1 106.35 237.96" stroke="#FFFFFF" stroke-opacity="1.000000" stroke-width="1.000000" stroke-linejoin="round" stroke-linecap="round"/>
		<path id="Vector" d="M97.21 267.2C106.11 263.41 114.4 258.34 121.84 252.15C121.84 252.15 143.72 258.99 158.08 258.99" stroke="#FFFFFF" stroke-opacity="1.000000" stroke-width="1.000000" stroke-linejoin="round" stroke-linecap="round"/>
		<path id="Vector" d="M178.74 101.94C176.33 100.66 173.83 99.55 171.27 98.62C165.65 96.62 181.7 78.1 177.68 68.92C173.66 59.75 165.65 56.08 158.82 61.31C158.82 61.31 147.99 82.16 143.98 86.19C141.85 88.52 139.24 90.38 136.33 91.62C133.42 92.87 130.28 93.48 127.11 93.41C125.6 93.43 124.08 93.54 122.57 93.75C121.81 102.64 122.42 123.94 144.77 129.93C165.82 135.56 174.82 118.19 178.74 101.94Z" fill="#FFFFFF" fill-opacity="1.000000" fill-rule="nonzero"/>
		<path id="Vector" d="M158.82 61.31C158.82 61.31 147.99 82.16 143.98 86.19C141.85 88.52 139.24 90.38 136.33 91.62C133.42 92.87 130.28 93.48 127.11 93.41C125.6 93.43 124.08 93.54 122.57 93.75C122.48 94.87 122.41 96.2 122.4 97.68C124.64 103.49 128.96 111.07 136.5 112.72C149.08 115.46 158.07 106.43 159.87 103.28C161.49 100.44 168.63 71.54 166.71 59.02C165.31 58.86 163.89 58.97 162.53 59.36C161.18 59.76 159.92 60.42 158.82 61.31Z" fill="#747CA5" fill-opacity="1.000000" fill-rule="nonzero"/>
		<g opacity="0.700000">
			<path id="Vector" d="M158.82 61.31C158.82 61.31 147.99 82.16 143.98 86.19C141.85 88.52 139.24 90.38 136.33 91.62C133.42 92.87 130.28 93.48 127.11 93.41C125.6 93.43 124.08 93.54 122.57 93.75C122.48 94.87 122.41 96.2 122.4 97.68C124.64 103.49 128.96 111.07 136.5 112.72C149.08 115.46 158.07 106.43 159.87 103.28C161.49 100.44 168.63 71.54 166.71 59.02C165.31 58.86 163.89 58.97 162.53 59.36C161.18 59.76 159.92 60.42 158.82 61.31Z" fill="#FFFFFF" fill-opacity="1.000000" fill-rule="nonzero"/>
		</g>
		<path id="Vector" d="M171.27 98.62C165.65 96.62 181.7 78.1 177.68 68.92C173.66 59.75 165.65 56.08 158.82 61.31C158.82 61.31 147.99 82.16 143.98 86.19C141.85 88.52 139.24 90.38 136.33 91.62C133.42 92.87 130.28 93.48 127.11 93.41C125.6 93.43 124.08 93.54 122.57 93.75C121.81 102.64 122.42 123.94 144.77 129.93C165.82 135.56 174.82 118.19 178.74 101.94C176.33 100.66 173.83 99.55 171.27 98.62Z" stroke="#444444" stroke-opacity="1.000000" stroke-width="1.000000" stroke-linejoin="round"/>
		<path id="Vector" d="M158.56 106.33C158.56 106.33 153.61 108.66 151.99 115.91" stroke="#444444" stroke-opacity="1.000000" stroke-width="1.000000" stroke-linejoin="round" stroke-linecap="round"/>
		<path id="Vector" d="M170.86 36.43C170.86 36.43 173.26 28.4 167.66 25.59C162.05 22.79 140.37 31.2 135.55 45.25C130.74 59.29 151.2 64.92 162.43 56.89C173.66 48.86 171.66 38.03 171.66 38.03L170.86 36.43Z" fill="#444444" fill-opacity="1.000000" fill-rule="nonzero"/>
		<path id="Vector" d="M167.66 25.59C162.05 22.79 140.37 31.2 135.55 45.25C130.74 59.29 151.2 64.92 162.43 56.89C173.66 48.86 171.66 38.03 171.66 38.03L170.86 36.43C170.86 36.43 173.26 28.4 167.66 25.59Z" stroke="#444444" stroke-opacity="1.000000" stroke-width="1.000000" stroke-linejoin="round"/>
		<path id="Vector" d="M135.55 45.25C135.55 45.25 131.03 57.39 139.38 63.52C147.74 69.65 159.98 57.95 159.98 57.95" stroke="#444444" stroke-opacity="1.000000" stroke-width="1.000000" stroke-linejoin="round" stroke-linecap="round"/>
		<path id="Vector" d="M159.23 74.94C159.23 74.94 150 64.92 156.37 46.9C162.75 28.89 179.62 24.05 199.76 25.14C225.06 26.51 227.4 52.92 226.61 59.34C226.11 63.27 225.3 67.16 224.2 70.98C224.2 70.98 234.23 83.41 228.6 91.04C222.98 98.67 203.33 95.05 195.7 84.61C188.06 74.18 165.21 77.39 164 78.2C162.8 79 159.23 74.94 159.23 74.94Z" fill="#444444" fill-opacity="1.000000" fill-rule="nonzero"/>
		<path id="Vector" d="M156.37 46.9C162.75 28.89 179.62 24.05 199.76 25.14C225.06 26.51 227.4 52.92 226.61 59.34C226.11 63.27 225.3 67.16 224.2 70.98C224.2 70.98 234.23 83.41 228.6 91.04C222.98 98.67 203.33 95.05 195.7 84.61C188.06 74.18 165.21 77.39 164 78.2C162.8 79 159.23 74.94 159.23 74.94C159.23 74.94 150 64.92 156.37 46.9Z" stroke="#444444" stroke-opacity="1.000000" stroke-width="1.000000" stroke-linejoin="round"/>
		<path id="Vector" d="M211.43 91.85C210.28 91.37 209.25 90.63 208.43 89.7" stroke="#FFFFFF" stroke-opacity="1.000000" stroke-width="1.000000" stroke-linejoin="round" stroke-linecap="round"/>
		<path id="Vector" d="M205.61 69.65C205.61 69.65 225.09 85.24 218.98 90.25C218.39 90.73 217.76 91.15 217.09 91.51" stroke="#FFFFFF" stroke-opacity="1.000000" stroke-width="1.000000" stroke-linejoin="round" stroke-linecap="round"/>
		<path id="Vector" d="M202.88 65.19C209.4 65.02 215.88 66.35 221.81 69.09" stroke="#FFFFFF" stroke-opacity="1.000000" stroke-width="1.000000" stroke-linejoin="round" stroke-linecap="round"/>
		<path id="Vector" d="M202.86 57.95L198.4 36.79" stroke="#FFFFFF" stroke-opacity="1.000000" stroke-width="1.000000" stroke-linejoin="round" stroke-linecap="round"/>
		<path id="Vector" d="M164.72 57.74C163.96 57.48 163.21 57.19 162.43 56.89" stroke="#FFFFFF" stroke-opacity="1.000000" stroke-width="1.000000" stroke-linejoin="round" stroke-linecap="round"/>
		<path id="Vector" d="M201.19 55.18C201.19 55.18 190.25 63.55 171.79 59.71" stroke="#FFFFFF" stroke-opacity="1.000000" stroke-width="1.000000" stroke-linejoin="round" stroke-linecap="round"/>
		<path id="Vector" d="M198.96 46.82C198.96 46.82 192.29 50.16 181.18 50.16" stroke="#FFFFFF" stroke-opacity="1.000000" stroke-width="1.000000" stroke-linejoin="round" stroke-linecap="round"/>
		<path id="Vector" d="M155.21 75.75C155.21 75.75 154 86.98 156.02 94.61C158.03 102.24 158.42 114.28 165.59 115.48C172.76 116.69 196.49 103.43 200.91 98.62C204.02 95.39 205.74 91.07 205.72 86.58C205.72 84.17 201.71 67.32 201.71 67.32C194.96 68.86 188.1 69.93 181.2 70.54C173.72 71.26 166.19 70.3 159.13 67.72C159.13 67.72 153.64 71.33 155.21 75.75Z" fill="#FFFFFF" fill-opacity="1.000000" fill-rule="nonzero"/>
		<path id="Vector" d="M159.23 67.72C159.23 67.72 153.61 71.33 155.21 75.75C155.21 75.75 154 86.98 156.02 94.61C157.66 100.84 158.22 110 162.31 113.76C158.93 106.36 157.19 88.42 165.71 80.7C175.15 72.17 198.54 68.12 198.54 68.12L198.54 67.98C195.08 68.68 189.06 69.73 181.33 70.48C173.85 71.23 166.3 70.28 159.23 67.72Z" fill="#747CA5" fill-opacity="1.000000" fill-rule="nonzero"/>
		<g opacity="0.700000">
			<path id="Vector" d="M159.23 67.72C159.23 67.72 153.61 71.33 155.21 75.75C155.21 75.75 154 86.98 156.02 94.61C157.66 100.84 158.22 110 162.31 113.76C158.93 106.36 157.19 88.42 165.71 80.7C175.15 72.17 198.54 68.12 198.54 68.12L198.54 67.98C195.08 68.68 189.06 69.73 181.33 70.48C173.85 71.23 166.3 70.28 159.23 67.72Z" fill="#FFFFFF" fill-opacity="1.000000" fill-rule="nonzero"/>
		</g>
		<path id="Vector" d="M156.02 94.61C158.03 102.24 158.42 114.28 165.59 115.48C172.76 116.69 196.49 103.43 200.91 98.62C204.02 95.39 205.74 91.07 205.72 86.58C205.72 84.17 201.71 67.32 201.71 67.32C194.96 68.86 188.1 69.93 181.2 70.54C173.72 71.26 166.19 70.3 159.13 67.72C159.13 67.72 153.64 71.33 155.21 75.75C155.21 75.75 154 86.98 156.02 94.61Z" stroke="#444444" stroke-opacity="1.000000" stroke-width="1.000000" stroke-linejoin="round"/>
		<path id="Vector" d="M160.02 71.74C160.02 71.74 160.43 61.7 155.61 61.7C150.78 61.7 147.59 78.12 156.82 80.17L160.02 71.74Z" fill="#FFFFFF" fill-opacity="1.000000" fill-rule="nonzero"/>
		<path id="Vector" d="M160.02 71.74C160.02 71.74 160.43 61.7 155.61 61.7C150.78 61.7 147.59 78.12 156.82 80.17L160.02 71.74Z" fill="#747CA5" fill-opacity="1.000000" fill-rule="nonzero"/>
		<g opacity="0.700000">
			<path id="Vector" d="M160.02 71.74C160.02 71.74 160.43 61.7 155.61 61.7C150.78 61.7 147.59 78.12 156.82 80.17L160.02 71.74Z" fill="#FFFFFF" fill-opacity="1.000000" fill-rule="nonzero"/>
		</g>
		<path id="Vector" d="M160.02 71.74C160.02 71.74 160.43 61.7 155.61 61.7C150.78 61.7 147.59 78.12 156.82 80.17" stroke="#444444" stroke-opacity="1.000000" stroke-width="1.000000" stroke-linejoin="round" stroke-linecap="round"/>
		<path id="Vector" d="M190.57 89.4C190.57 89.4 180.99 104.64 178.93 104.64C176.86 104.64 175.71 101.44 175.71 101.44" stroke="#444444" stroke-opacity="1.000000" stroke-width="1.000000" stroke-linejoin="round" stroke-linecap="round"/>
		<path id="Vector" d="M172.47 83.37C172.65 85.15 173.49 86.8 174.83 87.99C176.17 89.18 177.9 89.82 179.69 89.8" stroke="#444444" stroke-opacity="1.000000" stroke-width="1.000000" stroke-linejoin="round" stroke-linecap="round"/>
		<path id="Vector" d="M189.72 95.81C189.72 95.81 190.13 101.03 196.94 99.43" stroke="#444444" stroke-opacity="1.000000" stroke-width="1.000000" stroke-linejoin="round" stroke-linecap="round"/>
		<path id="Vector" d="M186.91 84.17C186.91 84.17 184.11 76.95 177.68 76.56" stroke="#444444" stroke-opacity="1.000000" stroke-width="1.500000" stroke-linejoin="round" stroke-linecap="round"/>
		<path id="Vector" d="M200.96 92.6C198.14 87.79 192.54 88.99 192.54 88.99" stroke="#444444" stroke-opacity="1.000000" stroke-width="1.500000" stroke-linejoin="round" stroke-linecap="round"/>
		<path id="Vector" d="M167.68 103.16C167.78 104.22 168.22 105.22 168.94 106C169.65 106.79 170.61 107.32 171.65 107.52" stroke="#444444" stroke-opacity="1.000000" stroke-width="1.000000" stroke-linejoin="round" stroke-linecap="round"/>
		<path id="Vector" d="M196.19 108.63C196.19 108.63 197.3 114.75 203.97 102.5C210.65 90.26 201.77 67.32 201.77 67.32" stroke="#444444" stroke-opacity="1.000000" stroke-width="1.000000" stroke-linejoin="round" stroke-linecap="round"/>
		<g opacity="0.130000">
			<path id="Vector" d="M175.15 166.75C175.19 166.67 175.21 166.59 175.23 166.5L175.15 166.75Z" fill="#444444" fill-opacity="1.000000" fill-rule="nonzero"/>
		</g>
	</g>
</svg>
