<svg width="500.000000" height="330.000000" viewBox="0 0 500 330" fill="none" xmlns="http://www.w3.org/2000/svg" xmlns:xlink="http://www.w3.org/1999/xlink">
	<desc>
			Created with Pixso.
	</desc>
	<defs>
		<clipPath id="clip378_18597">
			<rect id="58674 1" width="500.000000" height="330.000000" fill="white" fill-opacity="0"/>
		</clipPath>
	</defs>
	<rect id="58674 1" width="500.000000" height="330.000000" fill="#FFFFFF" fill-opacity="0"/>
	<g clip-path="url(#clip378_18597)">
		<path id="Vector" d="M115.65 228.16L115.65 183.76" stroke="#FFFFFF" stroke-opacity="1.000000" stroke-width="3.000000" stroke-linejoin="round" stroke-linecap="round"/>
		<path id="Vector" d="M383.24 209.88C383.24 214.98 382.21 219.75 380.43 223.84C376.84 232.09 370.16 237.64 362.51 237.64L111.55 237.64C109.89 237.64 108.54 235.84 108.54 233.62L108.54 232.19C108.54 229.97 109.89 228.17 111.55 228.17L260.24 228.17C263.06 228.17 265.63 226.49 266.66 223.89C266.67 223.88 266.67 223.86 266.68 223.84C268.11 220.23 268.92 216.11 268.92 211.73L268.92 199.62C268.92 197.39 268.71 195.23 268.3 193.17C268.29 193.14 268.29 193.1 268.28 193.07C267.2 187.64 262.33 183.76 256.74 183.76L111.55 183.76C109.89 183.76 108.54 181.96 108.54 179.74L108.54 178.31C108.54 176.09 109.89 174.29 111.55 174.29L363.77 174.29C372.66 174.29 380.16 182.27 382.49 193.17C382.97 195.45 383.24 197.86 383.24 200.35L383.24 209.88Z" stroke="#FFFFFF" stroke-opacity="1.000000" stroke-width="3.000000" stroke-linejoin="round"/>
		<path id="Vector" d="M134.23 207.03L115.65 207.67L115.65 205.97L134.23 207.03Z" stroke="#FFFFFF" stroke-opacity="1.000000" stroke-width="3.000000" stroke-linejoin="round"/>
		<path id="Vector" d="M159.86 216.97L115.65 217.61L115.65 215.9L159.86 216.97Z" stroke="#FFFFFF" stroke-opacity="1.000000" stroke-width="3.000000" stroke-linejoin="round"/>
		<path id="Vector" d="M132.42 115.37L132.42 77.95" stroke="#FFFFFF" stroke-opacity="1.000000" stroke-width="3.000000" stroke-linejoin="round" stroke-linecap="round"/>
		<path id="Vector" d="M353.92 99.96C353.92 104.25 353.08 108.27 351.6 111.73C348.62 118.68 343.1 123.35 336.77 123.35L129.02 123.35C127.65 123.35 126.53 121.83 126.53 119.96L126.53 118.76C126.53 116.88 127.65 115.37 129.02 115.37L252.07 115.37C254.43 115.37 256.57 113.94 257.42 111.76C257.43 111.75 257.43 111.74 257.44 111.72C258.62 108.68 259.29 105.2 259.29 101.52L259.29 91.3C259.29 89.43 259.12 87.61 258.78 85.87C258.5 84.38 258.09 82.96 257.59 81.62C256.76 79.4 254.6 77.94 252.21 77.94L129.02 77.94C127.65 77.94 126.53 76.43 126.53 74.55L126.53 73.35C126.53 71.48 127.65 69.96 129.02 69.96L337.81 69.96C345.17 69.96 351.38 76.69 353.3 85.87C353.71 87.8 353.92 89.83 353.92 91.93L353.92 99.96Z" stroke="#FFFFFF" stroke-opacity="1.000000" stroke-width="3.000000" stroke-linejoin="round"/>
		<path id="Vector" d="M147.8 97.55L132.42 98.1L132.42 96.66L147.8 97.55Z" stroke="#FFFFFF" stroke-opacity="1.000000" stroke-width="3.000000" stroke-linejoin="round"/>
		<path id="Vector" d="M169.02 105.93L132.42 106.47L132.42 105.03L169.02 105.93Z" stroke="#FFFFFF" stroke-opacity="1.000000" stroke-width="3.000000" stroke-linejoin="round"/>
		<path id="Vector" d="M131.86 277.53C133.69 278.48 135.83 279.06 138.03 279.06L294.85 279.06" stroke="#FFFFFF" stroke-opacity="1.000000" stroke-width="3.000000" stroke-linejoin="round" stroke-linecap="round"/>
		<path id="Vector" d="M294.85 237.53L137.24 237.53C130.44 237.53 124.93 242.98 124.93 249.71L124.93 266.09C124.93 270.04 126.71 273.59 129.51 275.96" stroke="#FFFFFF" stroke-opacity="1.000000" stroke-width="3.000000" stroke-linejoin="round" stroke-linecap="round"/>
		<path id="Vector" d="M456.92 272.84L456.92 243.74L279.27 243.74C272.36 243.74 266.76 249.28 266.76 256.12L266.76 260.18C266.76 267.17 272.49 272.84 279.55 272.84L456.92 272.84Z" stroke="#FFFFFF" stroke-opacity="1.000000" stroke-width="3.000000" stroke-linejoin="round"/>
		<path id="Vector" d="M293.01 279.05L463.84 279.05C464.89 279.05 465.74 278.21 465.74 277.17L465.74 274.72C465.74 273.69 464.89 272.84 463.84 272.84L293.01 272.84" stroke="#FFFFFF" stroke-opacity="1.000000" stroke-width="3.000000" stroke-linejoin="round" stroke-linecap="round"/>
		<path id="Vector" d="M359.34 243.74L463.84 243.74C464.89 243.74 465.74 242.9 465.74 241.86L465.74 239.41C465.74 238.37 464.89 237.53 463.84 237.53L364.37 237.53" stroke="#FFFFFF" stroke-opacity="1.000000" stroke-width="3.000000" stroke-linejoin="round" stroke-linecap="round"/>
		<path id="Vector" d="M433.86 258.99L456.92 259.41L456.92 258.29L433.86 258.99Z" stroke="#FFFFFF" stroke-opacity="1.000000" stroke-width="3.000000" stroke-linejoin="round"/>
		<path id="Vector" d="M402.07 249.43L456.92 249.85L456.92 248.73L402.07 249.43Z" stroke="#FFFFFF" stroke-opacity="1.000000" stroke-width="3.000000" stroke-linejoin="round"/>
		<path id="Vector" d="M405.76 254.01C405.9 254.52 405.99 255.07 406.01 255.65C406.14 259.55 406.01 268.37 406.01 268.37L412.95 263.96L419.87 268.37L419.87 256.42C419.87 254.15 419.27 251.96 418.17 250.52C417.64 249.82 416.99 249.29 416.25 249.29L402.63 249.29C402.63 249.29 404.98 251.08 405.76 254.01Z" stroke="#FFFFFF" stroke-opacity="1.000000" stroke-width="3.000000" stroke-linejoin="round"/>
		<path id="Vector" d="M410.83 166.67L410.83 130.97" stroke="#FFFFFF" stroke-opacity="1.000000" stroke-width="3.000000" stroke-linejoin="round" stroke-linecap="round"/>
		<path id="Vector" d="M116.07 123.35L415.85 123.35C417.96 123.35 419.67 124.77 419.67 126.51L419.67 127.81C419.67 129.55 417.96 130.97 415.85 130.97L234.94 130.97C230.62 130.97 226.71 132.49 223.97 134.92C222.79 135.98 221.83 137.2 221.15 138.55C220.44 139.96 220.05 141.5 220.03 143.11L220.03 154.08C220.05 155.76 220.46 157.36 221.2 158.82C222.52 161.43 224.87 163.6 227.82 164.99C230.09 166.06 232.71 166.67 235.49 166.67L415.85 166.67C417.96 166.67 419.67 168.08 419.67 169.83L419.67 171.12C419.67 172.87 417.96 174.28 415.85 174.28L104.29 174.28C103.33 174.28 102.04 174.21 101.11 174.13" stroke="#FFFFFF" stroke-opacity="1.000000" stroke-width="3.000000" stroke-linejoin="round" stroke-linecap="round"/>
		<path id="Vector" d="M387.71 149.67L410.83 150.19L410.83 148.82L387.71 149.67Z" stroke="#FFFFFF" stroke-opacity="1.000000" stroke-width="3.000000" stroke-linejoin="round"/>
		<path id="Vector" d="M355.82 137.95L410.83 138.47L410.83 137.1L355.82 137.95Z" stroke="#FFFFFF" stroke-opacity="1.000000" stroke-width="3.000000" stroke-linejoin="round"/>
		<path id="Vector" d="M361.22 142.05C361.43 142.52 361.57 143.02 361.6 143.54C361.8 147.07 361.6 155.05 361.6 155.05L372.31 151.06L383 155.05L383 144.23C383 142.18 382.09 140.19 380.38 138.89C379.56 138.26 378.56 137.78 377.42 137.78L356.39 137.78L356.39 137.78C356.39 137.78 360.02 139.4 361.22 142.05Z" stroke="#FFFFFF" stroke-opacity="1.000000" stroke-width="3.000000" stroke-linejoin="round"/>
		<path id="Vector" d="M248.98 200.18C248.77 200.81 248.64 201.49 248.61 202.2C248.41 206.99 248.61 217.84 248.61 217.84L237.89 212.42L227.2 217.84L227.2 203.14C227.2 200.36 228.12 197.65 229.82 195.88C230.64 195.02 231.65 194.38 232.78 194.38L253.82 194.38L253.82 194.38C253.82 194.38 250.18 196.57 248.98 200.18Z" stroke="#FFFFFF" stroke-opacity="1.000000" stroke-width="3.000000" stroke-linejoin="round"/>
		<path id="Vector" d="M42.84 124.2C42.84 124.2 45.12 133.98 51.76 133.98C53.25 133.98 55.29 132.77 56.9 131.47" stroke="#FFFFFF" stroke-opacity="1.000000" stroke-width="3.000000" stroke-linejoin="round" stroke-linecap="round"/>
		<path id="Vector" d="M112.64 269.07C107.65 263.44 93.4 246.31 89.31 229.16C88.43 225.45 88.07 221.8 88.45 218.34C88.45 218.34 88.15 217.4 87.62 215.74C87.6 215.67 87.58 215.59 87.55 215.52C87.32 214.79 87.05 213.93 86.74 212.96C85.75 209.83 84.38 205.54 82.83 200.66C81.66 197 79.72 190.97 77.9 185.31" stroke="#FFFFFF" stroke-opacity="1.000000" stroke-width="3.000000" stroke-linejoin="round" stroke-linecap="round"/>
		<path id="Vector" d="M95.87 153.88C96.92 157.46 98.29 162.57 99.69 168.52C100.32 170.81 100.95 173.34 101.55 176.1C102.22 179.23 102.84 182.64 103.37 186.33C104.25 192.59 104.84 199.62 104.87 207.34C104.89 210.48 104.81 213.73 104.62 217.09C104.48 219.55 104.85 222.84 105.55 226.57C108.72 243.64 118.42 268.9 118.42 268.9" stroke="#FFFFFF" stroke-opacity="1.000000" stroke-width="3.000000" stroke-linejoin="round" stroke-linecap="round"/>
		<path id="Vector" d="M112.09 279.06C112.09 279.06 111.33 275.84 112.66 273.65C113.84 271.72 113.39 270.62 112.51 269.02C113.44 269.39 114.63 269.73 115.94 269.66C116.95 269.6 118.03 269.14 118.97 268.6C119.84 269.59 123.59 273.8 124.77 274.63C126.1 275.58 132.03 275.24 132.44 279.06L112.09 279.06Z" stroke="#FFFFFF" stroke-opacity="1.000000" stroke-width="3.000000" stroke-linejoin="round"/>
		<path id="Vector" d="M67.06 279.06L78.13 279.06C78.13 279.06 78.36 276.45 74.34 273.44C71.3 271.15 67.14 272.75 67.14 272.75C67.14 272.75 65.73 276.17 67.06 279.06Z" stroke="#FFFFFF" stroke-opacity="1.000000" stroke-width="3.000000" stroke-linejoin="round"/>
		<path id="Vector" d="M83.77 76.75C83.77 76.75 84.97 73.37 86.94 73.83C90.01 74.55 93.27 66.02 89.49 58.78C89.08 58 88.66 57.3 88.22 56.67C88.85 56.76 89.53 56.78 90.12 56.62C91.67 56.2 92.93 51.63 92.88 50.23C92.83 48.82 91.28 44.58 88.8 43.87C86.32 43.17 83.35 45.63 83.35 45.63C84.07 43.68 88.5 43.05 88.5 43.05C79.47 43.57 79.19 49.45 79.18 49.99C72.1 46.47 65.93 58.36 64.96 60.35C64.53 60.74 64.1 61.34 63.7 62.23C61.73 66.56 66.08 72.08 66.08 72.08" stroke="#FFFFFF" stroke-opacity="1.000000" stroke-width="3.000000" stroke-linejoin="round" stroke-linecap="round"/>
		<path id="Vector" d="M66.08 72.08C66.08 72.08 66.08 72.08 66.08 72.08C67.33 71.89 66.47 67.72 66.55 65.55C66.61 63.96 67.72 62.05 68.31 61.15C68.82 62.01 73.81 70.08 80.98 71.26C80.98 71.26 77.33 69.48 74.18 66.49C75.8 67.54 77.57 68.29 79.31 68.26C80.75 68.24 81.96 68.09 82.94 67.88C83.15 68.73 83.37 69.61 83.62 70.52C85.78 78.34 73.04 81.58 73.04 81.58C70.82 82 67.86 76.6 66.08 72.08Z" stroke="#FFFFFF" stroke-opacity="1.000000" stroke-width="3.000000" stroke-linejoin="round"/>
		<path id="Vector" d="M90.89 86.33C89.67 86.14 88.32 85.99 87.08 85.92C85.71 84.47 83.93 80.33 83.5 74.17" stroke="#FFFFFF" stroke-opacity="1.000000" stroke-width="3.000000" stroke-linejoin="round" stroke-linecap="round"/>
		<path id="Vector" d="M73.81 81.36C73.91 82.77 73.98 85.73 73.9 86.69C71.15 87.11 69.38 87.54 69.38 87.54" stroke="#FFFFFF" stroke-opacity="1.000000" stroke-width="3.000000" stroke-linejoin="round" stroke-linecap="round"/>
		<path id="Vector" d="M66.81 273.79C66.43 273.69 66.38 273.67 66.38 273.67C66.38 273.67 56.91 229.21 58.24 223.03C59.56 216.85 57.35 211.58 57.35 211.58C49.99 177.66 50.8 158.87 52.26 149.87C52.49 148.46 52.63 147.71 52.87 146.76" stroke="#FFFFFF" stroke-opacity="1.000000" stroke-width="3.000000" stroke-linejoin="round" stroke-linecap="round"/>
		<path id="Vector" d="M80.94 155.52C80.86 156.31 80.84 156.45 80.75 157.33C79.6 168.21 77.8 185.7 76.57 199.5C75.61 210.29 75 218.83 75.33 220.2C76.32 224.33 75.33 273.66 75.33 273.66C75.13 273.76 75.09 273.78 74.88 273.86" stroke="#FFFFFF" stroke-opacity="1.000000" stroke-width="3.000000" stroke-linejoin="round" stroke-linecap="round"/>
		<path id="Vector" d="M53.14 109.43C54.7 104.07 56.67 97.77 58.61 94.08C61.64 88.31 69.74 87.48 69.74 87.48C69.74 87.48 73.1 92.77 81.25 92.02C89.4 91.27 90.89 86.33 90.89 86.33" stroke="#FFFFFF" stroke-opacity="1.000000" stroke-width="3.000000" stroke-linejoin="round" stroke-linecap="round"/>
		<path id="Vector" d="M96.81 134.69C97.39 140.09 98.13 149.58 96.43 153.08C96.16 153.63 95.83 154.02 95.43 154.19C86.7 157.95 52.72 154.3 51.29 143.45C51.02 141.41 54.71 136.44 58.23 132.15" stroke="#FFFFFF" stroke-opacity="1.000000" stroke-width="3.000000" stroke-linejoin="round" stroke-linecap="round"/>
		<path id="Vector" d="M101.55 115.02C100.61 118.26 100.17 119.47 99.11 122.46" stroke="#FFFFFF" stroke-opacity="1.000000" stroke-width="3.000000" stroke-linejoin="round" stroke-linecap="round"/>
		<path id="Vector" d="M82.05 129.2L84.35 132.82L59.56 132.82L45.68 110.18L69.78 109.68L78.75 123.95" stroke="#FFFFFF" stroke-opacity="1.000000" stroke-width="3.000000" stroke-linejoin="round" stroke-linecap="round"/>
		<path id="Vector" d="M79.67 124.23L70.06 108.95L69.78 109.68L78.75 123.95" stroke="#FFFFFF" stroke-opacity="1.000000" stroke-width="3.000000" stroke-linejoin="round" stroke-linecap="round"/>
		<path id="Vector" d="M82.05 129.2L83.59 131.66L83.85 130.85L82.9 129.36" stroke="#FFFFFF" stroke-opacity="1.000000" stroke-width="3.000000" stroke-linejoin="round" stroke-linecap="round"/>
		<path id="Vector" d="M46.71 109.61L45.68 110.18L69.78 109.68L70.06 108.95L46.71 109.61Z" stroke="#FFFFFF" stroke-opacity="1.000000" stroke-width="3.000000" stroke-linejoin="round"/>
		<path id="Vector" d="M46.4 124.65L47.85 126.9L59.56 132.82L45.68 110.18L32.58 103.16L42.94 119.27" stroke="#FFFFFF" stroke-opacity="1.000000" stroke-width="3.000000" stroke-linejoin="round" stroke-linecap="round"/>
		<path id="Vector" d="M79.1 124.21C79.1 124.21 84.87 124.35 90.29 124.43" stroke="#FFFFFF" stroke-opacity="1.000000" stroke-width="3.000000" stroke-linejoin="round" stroke-linecap="round"/>
		<path id="Vector" d="M87.8 130.22C82.71 129.37 78.34 128.48 78.34 128.48" stroke="#FFFFFF" stroke-opacity="1.000000" stroke-width="3.000000" stroke-linejoin="round" stroke-linecap="round"/>
		<path id="Vector" d="M72.48 123.17C70.82 124.12 69.07 125.55 68.28 125.97C67.21 126.56 64.29 128.64 65.77 129.9C67.25 131.17 71.86 130.08 73.68 129.12C75.51 128.15 78.34 128.48 78.34 128.48" stroke="#FFFFFF" stroke-opacity="1.000000" stroke-width="3.000000" stroke-linejoin="round" stroke-linecap="round"/>
		<path id="Vector" d="M79.1 124.21C79.1 124.21 76.03 122.01 74.78 122.32" stroke="#FFFFFF" stroke-opacity="1.000000" stroke-width="3.000000" stroke-linejoin="round" stroke-linecap="round"/>
		<path id="Vector" d="M74.78 122.32C74.78 122.32 71.24 121.9 70.27 121.92C69.31 121.94 69.57 122.15 70.1 122.89C70.41 123.33 70.97 123.53 71.56 123.74" stroke="#FFFFFF" stroke-opacity="1.000000" stroke-width="3.000000" stroke-linejoin="round" stroke-linecap="round"/>
		<path id="Vector" d="M90.89 86.33C90.89 86.33 101.39 87.56 104.28 92.02C107.93 97.65 116.55 120.09 116.27 125.74C116.27 125.74 109.97 136.36 88.35 134.66C88.35 134.66 86.1 126.8 90.65 124.2C90.65 124.2 101.76 122.24 103.03 121.13L98.54 102.8" stroke="#FFFFFF" stroke-opacity="1.000000" stroke-width="3.000000" stroke-linejoin="round" stroke-linecap="round"/>
		<path id="Vector" d="M44.86 118.9C44.62 119.09 44.37 119.4 44.12 119.76C44.09 119.54 44.06 119.33 44.05 119.17C43.99 118.55 43.27 117.45 43.09 118.28C42.91 119.1 42.61 122.57 42.61 122.57C42.58 125.36 44.39 126.51 45.56 125.6C46.72 124.69 49.36 119.95 49.04 118.64C48.71 117.33 45.83 118.15 44.86 118.9Z" stroke="#FFFFFF" stroke-opacity="1.000000" stroke-width="3.000000" stroke-linejoin="round"/>
	</g>
</svg>
