<svg width="500.000000" height="330.000000" viewBox="0 0 500 330" fill="none" xmlns="http://www.w3.org/2000/svg" xmlns:xlink="http://www.w3.org/1999/xlink">
	<desc>
			Created with Pixso.
	</desc>
	<defs>
		<clipPath id="clip378_18715">
			<rect id="58675 1" width="500.000000" height="330.000000" fill="white" fill-opacity="0"/>
		</clipPath>
	</defs>
	<rect id="58675 1" width="500.000000" height="330.000000" fill="#FFFFFF" fill-opacity="0"/>
	<g clip-path="url(#clip378_18715)">
		<path id="Vector" d="M167.5 320.1L176.66 273.9" stroke="#FFFFFF" stroke-opacity="1.000000" stroke-width="2.000000" stroke-linejoin="round" stroke-linecap="round"/>
		<path id="Vector" d="M180 284.62L173.33 317.62" stroke="#FFFFFF" stroke-opacity="1.000000" stroke-width="2.000000" stroke-linejoin="round" stroke-linecap="round"/>
		<path id="Vector" d="M326.66 240.13L342.97 327.52L349.16 327.52L331.25 235.12" stroke="#FFFFFF" stroke-opacity="1.000000" stroke-width="2.000000" stroke-linejoin="round" stroke-linecap="round"/>
		<path id="Vector" d="M218.33 266.47L229.69 327.52L235.83 327.52L224.15 267.09" stroke="#FFFFFF" stroke-opacity="1.000000" stroke-width="2.000000" stroke-linejoin="round" stroke-linecap="round"/>
		<path id="Vector" d="M300 255.75L286.61 327.46L281.66 327.52L294.47 257.91" stroke="#FFFFFF" stroke-opacity="1.000000" stroke-width="2.000000" stroke-linejoin="round" stroke-linecap="round"/>
		<path id="Vector" d="M173.33 127.05C177.22 115.18 179.84 106.18 186.15 95.49C194.63 81.1 208.18 63.39 225.83 54.45" stroke="#FFFFFF" stroke-opacity="1.000000" stroke-width="2.000000" stroke-linejoin="round" stroke-linecap="round"/>
		<path id="Vector" d="M168.33 249.97C167.41 249.45 166.49 248.91 165.58 248.36C165.58 248.36 127.81 225.66 147.19 187.98C154.28 174.19 159.6 162.66 163.49 153.45" stroke="#FFFFFF" stroke-opacity="1.000000" stroke-width="2.000000" stroke-linejoin="round" stroke-linecap="round"/>
		<path id="Vector" d="M254.58 266.47C238.59 268.01 220.34 267.45 203.33 263.17" stroke="#FFFFFF" stroke-opacity="1.000000" stroke-width="2.000000" stroke-linejoin="round" stroke-linecap="round"/>
		<path id="Vector" d="M270.83 50.32C289.83 52.88 312.75 59.75 335.75 98.41C364.76 147.16 349.49 219.99 326.59 240.22C318.57 247.32 303.24 255.33 285.2 260.7" stroke="#FFFFFF" stroke-opacity="1.000000" stroke-width="2.000000" stroke-linejoin="round" stroke-linecap="round"/>
		<path id="Vector" d="M165.83 240.9C161.52 239.77 156.75 238.32 152.5 236.77" stroke="#FFFFFF" stroke-opacity="1.000000" stroke-width="2.000000" stroke-linejoin="round" stroke-linecap="round"/>
		<path id="Vector" d="M258.75 237.6C242.57 242.51 222.58 246.11 202.5 245.83" stroke="#FFFFFF" stroke-opacity="1.000000" stroke-width="2.000000" stroke-linejoin="round" stroke-linecap="round"/>
		<path id="Vector" d="M286.66 53.62C292.9 60.05 297.6 66.59 303.92 77.29C332.89 126.29 318.19 199.1 295.33 219.45" stroke="#FFFFFF" stroke-opacity="1.000000" stroke-width="2.000000" stroke-linejoin="round" stroke-linecap="round"/>
		<path id="Vector" d="M215 76.72C213.93 76.76 211.02 77.73 206.76 85.73C201.32 95.93 193.33 127.05 193.33 127.05" stroke="#FFFFFF" stroke-opacity="1.000000" stroke-width="2.000000" stroke-linejoin="round" stroke-linecap="round"/>
		<path id="Vector" d="M240 72.6C232.17 73.27 220.71 74.89 215 76.72" stroke="#FFFFFF" stroke-opacity="1.000000" stroke-width="2.000000" stroke-linejoin="round" stroke-linecap="round"/>
		<path id="Vector" d="M286.66 76.72C286.66 76.72 286.18 76.65 270.75 74.12C266.63 73.44 262.43 72.95 257.5 72.6" stroke="#FFFFFF" stroke-opacity="1.000000" stroke-width="2.000000" stroke-linejoin="round" stroke-linecap="round"/>
		<path id="Vector" d="M213.33 113.02C213.45 117.67 213.68 122.06 214.16 127.05" stroke="#FFFFFF" stroke-opacity="1.000000" stroke-width="2.000000" stroke-linejoin="round" stroke-linecap="round"/>
		<path id="Vector" d="M252.5 303.6C251.85 306.08 250.84 309 249.97 310.29C249.72 310.66 249.34 311.45 249.16 311.85" stroke="#FFFFFF" stroke-opacity="1.000000" stroke-width="2.000000" stroke-linejoin="round" stroke-linecap="round"/>
		<path id="Vector" d="M269.16 311.85C268.67 310.9 268.41 309.7 268.34 308.87C268.29 308.31 268.4 307.02 268.51 306.07" stroke="#FFFFFF" stroke-opacity="1.000000" stroke-width="2.000000" stroke-linejoin="round" stroke-linecap="round"/>
		<path id="Vector" d="M198.33 215.32C214.07 219.14 233.38 222.92 260 225.22" stroke="#FFFFFF" stroke-opacity="1.000000" stroke-width="2.000000" stroke-linejoin="round" stroke-linecap="round"/>
		<path id="Vector" d="M274.5 318.24C274.02 316.05 271.32 313.46 269.71 311.02C268.87 311.69 267.5 312.87 263.41 314.07C259.16 315.32 253.34 312.85 249.63 311.3C248.31 316.2 248.25 322.46 248.37 323.41C248.52 324.58 257.59 328.35 267.01 327.35C276.42 326.35 275.26 321.74 274.5 318.24Z" stroke="#FFFFFF" stroke-opacity="1.000000" stroke-width="2.000000" stroke-linejoin="round"/>
		<path id="Vector" d="M261.54 216.49C259.6 231.01 250 303.34 250 303.34L272.28 306.07C272.28 306.07 299.68 211.67 298.28 197.24C296.87 182.8 286.62 181.58 286.62 181.58C286.62 181.58 280.5 180.49 274.16 186.06" stroke="#FFFFFF" stroke-opacity="1.000000" stroke-width="2.000000" stroke-linejoin="round" stroke-linecap="round"/>
		<path id="Vector" d="M231.14 57.99C231.14 57.99 220.33 53.18 223.65 42.05C223.65 42.05 217.82 36.88 222.92 30.68C222.92 30.68 219.2 20.98 226.56 15.25C233.93 9.53 240.08 10.4 240.08 10.4C240.08 10.4 247.53 2.69 253.52 12.07C253.52 12.07 258.13 9.53 261.37 14.06C261.37 14.06 269.7 11.59 271.73 23.84C271.73 23.84 276.01 23.04 276.58 28.05C277.15 33.06 274.56 36.4 274.56 36.4C274.56 36.4 276.97 38.18 275.87 42.79C274.94 46.7 271.64 47.3 271.64 47.3C271.64 47.3 270.75 53.9 267.84 55.89C264.92 57.87 260.96 56.92 260.96 56.92C260.96 56.92 260.13 60.52 256.73 60.2" stroke="#FFFFFF" stroke-opacity="1.000000" stroke-width="2.000000" stroke-linejoin="round" stroke-linecap="round"/>
		<path id="Vector" d="M241.06 67.27L240.27 73.03C240.27 73.03 237.28 86.98 241.13 89.67C244.98 92.36 257.5 72.63 257.5 72.63L256.6 56.1" stroke="#FFFFFF" stroke-opacity="1.000000" stroke-width="2.000000" stroke-linejoin="round" stroke-linecap="round"/>
		<path id="Vector" d="M239.48 67.64C234.17 67.64 228.12 56.33 228.33 44.71C228.42 40.02 228.87 35.72 229.37 32.26C231.35 31.69 233.36 30.68 235.2 29.23C238.27 26.81 240.22 23.69 240.8 20.75C242.78 20.47 244.87 20.64 246.92 21.34C255.19 24.17 260.31 33.43 259.98 43.62C259.45 60.12 244.78 67.64 239.48 67.64Z" stroke="#FFFFFF" stroke-opacity="1.000000" stroke-width="2.000000" stroke-linejoin="round"/>
		<path id="Vector" d="M259.16 49.5C261.46 49.5 264.16 47.46 264.16 44.96C264.16 42.45 262.3 40.42 260 40.42" stroke="#FFFFFF" stroke-opacity="1.000000" stroke-width="2.000000" stroke-linejoin="round" stroke-linecap="round"/>
		<path id="Vector" d="M278.33 137.77C277.75 147.28 277.34 156.4 277.1 162.84C266.69 163.83 250.12 163.13 242.5 162.67" stroke="#FFFFFF" stroke-opacity="1.000000" stroke-width="2.000000" stroke-linejoin="round" stroke-linecap="round"/>
		<path id="Vector" d="M288.33 181.5C294.15 175.66 297.53 156.99 298.33 137.77" stroke="#FFFFFF" stroke-opacity="1.000000" stroke-width="2.000000" stroke-linejoin="round" stroke-linecap="round"/>
		<path id="Vector" d="M247.5 174.9C247.5 174.9 250.22 175.34 253.47 176.09C257.33 176.98 262.92 178.32 265.83 179.02" stroke="#FFFFFF" stroke-opacity="1.000000" stroke-width="2.000000" stroke-linejoin="round" stroke-linecap="round"/>
		<path id="Vector" d="M274.27 105.37C273.41 113.87 273.07 124.6 273.54 138.01C281.12 138.63 292.25 139.12 300.38 137.51C301.63 112.65 301.15 81.95 286.95 76.72" stroke="#FFFFFF" stroke-opacity="1.000000" stroke-width="2.000000" stroke-linejoin="round" stroke-linecap="round"/>
		<path id="Vector" d="M223.06 127.05L244.16 179.02L242.71 178.8L221.66 127.05L223.06 127.05Z" stroke="#FFFFFF" stroke-opacity="1.000000" stroke-width="2.000000" stroke-linejoin="round"/>
		<path id="Vector" d="M190 307.72C189.9 309.6 189.38 311.31 187.76 313.07C186.96 313.94 186.62 314.3 185 315.15" stroke="#FFFFFF" stroke-opacity="1.000000" stroke-width="2.000000" stroke-linejoin="round" stroke-linecap="round"/>
		<path id="Vector" d="M206.66 314.32L205 307.72" stroke="#FFFFFF" stroke-opacity="1.000000" stroke-width="2.000000" stroke-linejoin="round" stroke-linecap="round"/>
		<path id="Vector" d="M200.83 316.13C205.87 313.65 205.72 312.97 207.18 313.89C208.64 314.81 209.16 326.19 209.16 326.19L163.48 327.52C160.3 327.45 158.7 325.13 161.28 323.15C163.05 321.79 165.1 320.88 166.26 320.22C169.83 318.19 185.35 314.42 185.35 314.42C185.35 314.42 195.79 318.6 200.83 316.13Z" stroke="#FFFFFF" stroke-opacity="1.000000" stroke-width="2.000000" stroke-linejoin="round"/>
		<path id="Vector" d="M196 207.51C198.8 217.03 200.79 227.67 201.34 236.26C202.22 250.17 205.83 307.72 205.83 307.72L185.99 307.59C185.12 297.6 160.27 224.92 156.49 212.56C152.72 200.19 155.93 188.12 167.89 183.21C172.17 181.45 176.08 181.1 179.16 181.91" stroke="#FFFFFF" stroke-opacity="1.000000" stroke-width="2.000000" stroke-linejoin="round" stroke-linecap="round"/>
		<path id="Vector" d="M279.77 182.32L181.88 182.32C179 182.32 176.39 180.67 175.22 178.1L154.55 133.04C153.26 130.23 155.36 127.05 158.51 127.05L225.17 127.05C226.94 127.05 228.52 128.09 229.19 129.69L249.72 178.68L286.47 178.68C287.49 178.68 288.33 179.5 288.33 180.5C288.33 180.88 288.29 181.1 288.09 181.39" stroke="#FFFFFF" stroke-opacity="1.000000" stroke-width="2.000000" stroke-linejoin="round" stroke-linecap="round"/>
		<path id="Vector" d="M245 54.45C245 54.45 244.83 58.36 240.43 58.56C235.07 58.81 235 54.61 235 54.61L245 54.45Z" stroke="#FFFFFF" stroke-opacity="1.000000" stroke-width="2.000000" stroke-linejoin="round"/>
	</g>
</svg>
