<svg width="500.000000" height="330.000000" viewBox="0 0 500 330" fill="none" xmlns="http://www.w3.org/2000/svg" xmlns:xlink="http://www.w3.org/1999/xlink">
	<desc>
			Created with Pixso.
	</desc>
	<defs>
		<clipPath id="clip378_18479">
			<rect id="58672 1" width="500.000000" height="330.000000" fill="white" fill-opacity="0"/>
		</clipPath>
	</defs>
	<g clip-path="url(#clip378_18479)">
		<path id="Vector" d="M189.67 293.63L189.67 313.91L71.01 313.91L71.01 293.63L189.67 293.63Z" stroke="#FFFFFF" stroke-opacity="1.000000" stroke-width="2.000000" stroke-linejoin="round"/>
		<path id="Vector" d="M161.7 293.63L161.7 313.9L71.01 313.9L71.01 293.63L161.7 293.63Z" stroke="#FFFFFF" stroke-opacity="1.000000" stroke-width="2.000000" stroke-linejoin="round"/>
		<path id="Vector" d="M204.52 313.9L204.52 220.46L292.87 220.46L292.87 313.9L204.52 313.9Z" stroke="#FFFFFF" stroke-opacity="1.000000" stroke-width="2.000000" stroke-linejoin="round"/>
		<path id="Vector" d="M204.52 313.9L204.52 220.46L272.05 220.46L272.05 313.9L204.52 313.9Z" stroke="#FFFFFF" stroke-opacity="1.000000" stroke-width="2.000000" stroke-linejoin="round"/>
		<path id="Vector" d="M322.84 91.96C316.86 92.83 310.81 93.94 308.04 94.47C305.53 94.95 298.79 92.67 292.21 90.06C288.32 88.52 285.61 87.36 282.74 86.08" stroke="#FFFFFF" stroke-opacity="1.000000" stroke-width="2.000000" stroke-linejoin="round" stroke-linecap="round"/>
		<path id="Vector" d="M280.87 97.49C282.21 98.25 282.7 98.05 288.52 99.23C288.52 99.23 288.52 99.23 288.52 99.23C296.55 100.87 306.03 102.29 309.26 101.79C311.29 101.48 314.81 100.4 319.09 98.83" stroke="#FFFFFF" stroke-opacity="1.000000" stroke-width="2.000000" stroke-linejoin="round" stroke-linecap="round"/>
		<path id="Vector" d="M319.14 186.64C314.89 181.77 303.1 167.88 300.98 161.43C299.58 157.2 290.64 155.37 281.31 152.98C279.17 152.43 277.01 151.86 274.92 151.21" stroke="#FFFFFF" stroke-opacity="1.000000" stroke-width="2.000000" stroke-linejoin="round" stroke-linecap="round"/>
		<path id="Vector" d="M283.59 130.93C287.27 133.32 290.32 135.37 294.07 138.01C303.1 144.37 311.13 150.88 312.34 154.62C315.04 162.97 320.63 178.73 323.59 186.15" stroke="#FFFFFF" stroke-opacity="1.000000" stroke-width="2.000000" stroke-linejoin="round" stroke-linecap="round"/>
		<path id="Vector" d="M321.23 193.61C321.92 193.5 322.44 193.3 323.15 193.21C324.24 193.07 324.74 193.51 324.84 193.61C324.85 193.62 324.86 193.63 324.86 193.63L333.7 193.63C333.92 193.32 333.7 192.59 333.5 192.05C333.36 191.69 333.05 191.41 332.67 191.3C331.73 191.04 329.88 190.8 328.19 189.28C327.24 188.43 323.6 186.15 323.6 186.15L323.57 186.14C323.5 186.15 323.11 186.26 321.46 187.65C320.6 188.36 319.14 186.64 319.14 186.64C319.14 186.64 318.86 186.86 318.66 187.28C318.5 187.61 318.38 188.06 318.47 188.62C318.6 189.41 318.18 190.88 317.84 191.87C317.63 192.47 317.46 192.89 317.46 192.89C317.46 192.89 317.36 193.39 319.15 193.61L321.23 193.61Z" stroke="#FFFFFF" stroke-opacity="1.000000" stroke-width="2.000000" stroke-linejoin="round"/>
		<path id="Vector" d="M241.44 213.47C240.88 206.17 240.61 186.13 251.65 173.97C251.8 173.8 251.91 173.62 251.93 173.4C251.93 173.4 251.93 173.4 251.93 173.39C252.11 171.15 252.77 161.08 254.2 150.88C254.55 148.38 254.94 145.87 255.39 143.47C255.42 143.31 255.45 143.16 255.48 143.01C256.18 139.27 257.13 135.37 257.84 132.89" stroke="#FFFFFF" stroke-opacity="1.000000" stroke-width="2.000000" stroke-linejoin="round" stroke-linecap="round"/>
		<path id="Vector" d="M277.55 143.14C275.44 149.24 274.38 153 270.96 161.07C270.21 162.84 269.45 164.58 268.68 166.26C265.83 172.47 262.92 177.79 260.35 180.49C256.76 184.28 249.05 204.42 245.87 212.97" stroke="#FFFFFF" stroke-opacity="1.000000" stroke-width="2.000000" stroke-linejoin="round" stroke-linecap="round"/>
		<path id="Vector" d="M243.52 220.44C244.22 220.33 244.74 220.13 245.45 220.04C246.54 219.9 247.04 220.34 247.14 220.44C247.15 220.45 247.16 220.46 247.16 220.46L255.99 220.46C256.21 220.14 256 219.42 255.79 218.88C255.65 218.52 255.34 218.24 254.97 218.13C254.03 217.86 252.18 217.62 250.49 216.11C249.54 215.26 245.89 212.98 245.89 212.98L245.87 212.97C245.79 212.97 245.41 213.09 243.75 214.47C242.9 215.19 241.44 213.46 241.44 213.46C241.44 213.46 241.16 213.69 240.96 214.11C240.79 214.44 240.67 214.89 240.77 215.45C240.9 216.24 240.47 217.7 240.13 218.69C239.93 219.3 239.75 219.72 239.75 219.72C239.75 219.72 239.65 220.22 241.44 220.44L243.52 220.44Z" stroke="#FFFFFF" stroke-opacity="1.000000" stroke-width="2.000000" stroke-linejoin="round"/>
		<path id="Vector" d="M251.91 107.33C250.7 109.19 249.38 111.04 247.63 113.42C247.63 113.42 247.63 113.42 247.63 113.42C242.81 119.99 236.76 127.36 234.04 129.14C231.01 131.12 221.31 135.07 214.64 137.19" stroke="#FFFFFF" stroke-opacity="1.000000" stroke-width="2.000000" stroke-linejoin="round" stroke-linecap="round"/>
		<path id="Vector" d="M211.02 133.98L212.94 133.91C218.43 130 226.89 124.77 229.96 122.91C232.14 121.59 235.57 115.42 238.67 109.1C239.75 106.88 240.61 105.03 241.54 102.99" stroke="#FFFFFF" stroke-opacity="1.000000" stroke-width="2.000000" stroke-linejoin="round" stroke-linecap="round"/>
		<path id="Vector" d="M259.12 75.97L259.85 76.19C259.85 76.19 259.83 73.87 261.34 74.03C263.7 74.28 265.66 68.55 262.16 63.5C261.79 62.96 261.4 62.48 261.02 62.04C261.49 62.05 262.01 62.01 262.43 61.83C263.55 61.37 264.06 57.86 263.89 56.81C263.72 55.77 262.09 52.43 262.09 52.43L262.07 52.46C261.02 53.87 259.52 54.89 257.81 55.33C258.16 53.81 259.89 53.12 259.89 53.12C253.2 54.33 253.61 57.49 253.66 57.9C247.54 55.74 243.95 67.14 243.95 67.14" stroke="#FFFFFF" stroke-opacity="1.000000" stroke-width="2.000000" stroke-linejoin="round" stroke-linecap="round"/>
		<path id="Vector" d="M259.85 76.19C260.23 76.82 261.03 78.14 261.48 78.84C262.49 80.38 263.55 81.77 264.02 81.72" stroke="#FFFFFF" stroke-opacity="1.000000" stroke-width="2.000000" stroke-linejoin="round" stroke-linecap="round"/>
		<path id="Vector" d="M254.93 86.39C255.24 86.08 254.99 85.49 254.7 84.29C254.53 83.51 254.15 82.45 253.64 81.36" stroke="#FFFFFF" stroke-opacity="1.000000" stroke-width="2.000000" stroke-linejoin="round" stroke-linecap="round"/>
		<path id="Vector" d="M246 75.64C246.32 77.71 249.63 82.88 252.08 82.09C252.08 82.09 260.94 78.63 259.04 73.17C259.01 73.07 258.25 71.1 258.21 71" stroke="#FFFFFF" stroke-opacity="1.000000" stroke-width="2.000000" stroke-linejoin="round" stroke-linecap="round"/>
		<path id="Vector" d="M246.48 65.46C246.26 65.73 244 66.25 243.3 68.52C242.24 71.92 246 75.64 246 75.64C246.91 75.39 245.88 72.35 245.74 70.73C245.64 69.54 246.28 68.01 246.64 67.29C247.09 67.87 251.56 73.44 257.03 73.66C257.03 73.66 254.51 72.06 251.88 70.12C253.19 70.76 255.1 71.3 256.4 71.12C260.64 70.53 260.99 69.29 260.99 69.29" stroke="#FFFFFF" stroke-opacity="1.000000" stroke-width="2.000000" stroke-linejoin="round" stroke-linecap="round"/>
		<path id="Vector" d="M280.47 98.27C281.84 95.68 282.51 93.35 282.79 91.38C283.41 87.22 282.35 84.65 282.35 84.65C282.35 84.65 275.97 81.3 273.16 80.87C273.14 80.87 273.13 80.86 273.12 80.86C273.09 80.86 273.05 80.85 273.01 80.85C270.16 80.47 264.01 81.71 264.01 81.71C264.01 81.71 265.2 84.84 261.85 86.92C258.5 89.01 254.92 86.39 254.92 86.39C254.82 86.46 254.7 86.54 254.58 86.62C254.58 86.62 245.77 92.38 244.98 93.7C244.19 95.01 240.8 101.52 240.8 101.52C240.8 101.52 241.88 106.99 253.78 107.45C254.76 109.8 255.51 112.09 255.75 114C256.7 121.43 255.6 127.28 256.7 131.61C257.8 135.95 277.67 133.48 281.26 132.64C284.86 131.81 284.05 128 284.33 124.31C284.68 119.67 281.89 103.2 280.72 99.11C280.64 98.84 280.56 98.55 280.47 98.27Z" stroke="#FFFFFF" stroke-opacity="1.000000" stroke-width="2.000000" stroke-linejoin="round"/>
		<path id="Vector" d="M276.82 89.69C278.87 91.95 280.15 96.93 280.46 98.3" stroke="#FFFFFF" stroke-opacity="1.000000" stroke-width="2.000000" stroke-linejoin="round" stroke-linecap="round"/>
		<path id="Vector" d="M202.79 138.83C202.79 138.83 205.62 135.59 206.41 135.06C207.21 134.54 210.71 133.62 210.91 133.8C211.11 133.99 211.11 134.26 210.68 134.64C210.25 135.01 208.59 135.97 208.83 136.08C209.07 136.18 214.05 133.73 214.77 134.55C215.49 135.38 214.37 138.79 212.44 140.43C210.52 142.07 204.86 142.99 204.49 143.22" stroke="#FFFFFF" stroke-opacity="1.000000" stroke-width="2.000000" stroke-linejoin="round" stroke-linecap="round"/>
		<path id="Vector" d="M149.77 131.17C150.36 128.26 150.64 125.33 150.49 122.36" stroke="#FFFFFF" stroke-opacity="1.000000" stroke-width="2.000000" stroke-linejoin="round" stroke-linecap="round"/>
		<path id="Vector" d="M140.12 119.28C139.83 121.77 140 124.41 138.74 126.66" stroke="#FFFFFF" stroke-opacity="1.000000" stroke-width="2.000000" stroke-linejoin="round" stroke-linecap="round"/>
		<path id="Vector" d="M140.42 119C143.16 122.92 148.83 123.25 152.83 121.44C153.83 120.94 154.16 119.62 154.33 118.47C154.5 115.17 154.5 111.87 153.85 108.62" stroke="#FFFFFF" stroke-opacity="1.000000" stroke-width="2.000000" stroke-linejoin="round" stroke-linecap="round"/>
		<path id="Vector" d="M132.94 110.92C132.22 109.5 131.72 106.42 133.41 103.69C135.09 100.97 141.06 98.83 146.02 97.89C150.98 96.96 152.17 99.73 153.34 102.5C154.57 105.42 158.11 107.82 158.11 107.82C153.83 110.18 148.68 106.8 146.9 107.36C145.11 107.91 144.48 110.7 144.35 111.59C144.21 112.48 144.01 113.22 141.76 112.43C139.52 111.63 140.75 115.58 141.11 116.33C141.11 116.33 141.41 118.34 140.13 119.16C139.97 119.26 137.54 120 132.94 110.92Z" stroke="#FFFFFF" stroke-opacity="1.000000" stroke-width="2.000000" stroke-linejoin="round"/>
		<path id="Vector" d="M106.17 280.91C106.23 282.1 106.26 283.47 106.19 284.68C106.03 287.56 106.99 290.66 109.54 291.22C112.09 291.77 111.04 293.63 111.04 293.63L104.2 293.63C102.76 293.63 101.17 292.19 100.77 289.56C100.37 286.92 97.43 285.48 96.79 283.32C96.15 281.16 99.42 278.13 99.42 278.13L99.77 277.28" stroke="#FFFFFF" stroke-opacity="1.000000" stroke-width="2.000000" stroke-linejoin="round" stroke-linecap="round"/>
		<path id="Vector" d="M146.83 285.51L146.83 285.51C147.94 289.23 152.89 290.92 155.74 291.39C157.93 291.75 158.49 293.05 158.64 293.7L140.51 293.7C140.34 293.66 140.21 293.63 140.13 293.59C138.92 292.97 139.3 288.25 139.44 286.79" stroke="#FFFFFF" stroke-opacity="1.000000" stroke-width="2.000000" stroke-linejoin="round" stroke-linecap="round"/>
		<path id="Vector" d="M154.3 197.95C154 203.28 153.5 208.39 153.16 213.67C153 215.82 152.83 218.13 152.66 220.27C152.5 221.1 152.5 221.76 152.33 222.58C152.33 223.9 152.16 225.39 152.16 226.71C151 241.89 149.66 256.74 148.83 271.92C148.66 276.21 148.16 280.5 147.66 284.79C147 285.45 146.33 285.94 145.5 286.27C143.16 286.76 140.66 287.43 138.5 286.27C138.5 286.27 138.5 285.94 138.5 285.78C138.16 285.12 138 284.46 137.83 283.79C135.83 277.03 134.16 270.76 133.33 263.83C130.5 240.24 129.66 217.3 128.25 193.86" stroke="#FFFFFF" stroke-opacity="1.000000" stroke-width="2.000000" stroke-linejoin="round" stroke-linecap="round"/>
		<path id="Vector" d="M122.08 190.62C121.66 195.03 121.33 199.32 120.66 203.94C120 207.73 119.16 211.2 118 214.66C116.83 217.8 115.83 220.77 114 223.74C112.83 225.39 112.16 227.04 111 228.69C110.33 229.35 109.83 230.01 109.33 230.83C108.5 232.81 107.66 234.63 107 236.61C104.33 245.85 102.5 254.59 100.83 264.16C100.16 268.45 99.5 272.41 99.5 276.54C99.5 276.87 99.66 277.2 100 277.53C101.83 279.18 104 280.33 106.33 280.99C106.5 280.99 106.66 280.99 106.83 280.82C108 279.34 108.5 277.69 109.66 276.21C114 269.44 117 262.51 121.33 256.07C124.5 249.81 128 243.7 130.71 237.29" stroke="#FFFFFF" stroke-opacity="1.000000" stroke-width="2.000000" stroke-linejoin="round" stroke-linecap="round"/>
		<path id="Vector" d="M110.47 185.81C110.32 187.43 110.07 189.78 109.84 190.38C109.5 191.21 107.3 193.78 107.04 193.75C106.79 193.71 106.64 193.51 106.77 192.98C106.9 192.46 107.66 190.84 107.41 190.88C107.17 190.92 104.65 195.48 103.64 195.23C102.64 194.97 101.65 191.73 102.25 189.44C102.85 187.15 106.34 184.5 106.5 184.14" stroke="#FFFFFF" stroke-opacity="1.000000" stroke-width="2.000000" stroke-linejoin="round" stroke-linecap="round"/>
		<path id="Vector" d="M127.62 141.8C122.5 148.17 117.66 154.27 113 161.37C111.33 163.84 110.33 166.32 109.33 169.12C107.66 174.07 107 179.02 106.5 184.14C107.5 185.46 109.5 186.28 111.16 185.62C114.66 179.35 117.83 173.25 121.83 166.81C122.5 165.82 123.33 165.16 124.33 164.5C124.5 164.34 124.66 164.01 124.87 163.86" stroke="#FFFFFF" stroke-opacity="1.000000" stroke-width="2.000000" stroke-linejoin="round" stroke-linecap="round"/>
		<path id="Vector" d="M158.69 153.83C158.83 159.22 158.5 164.83 158.16 170.28C157.33 179.35 156.5 188.59 155 197.5C153.83 198.33 152.5 198 151.16 198C147.16 198.33 143.16 198 139 197.17C136.16 196.68 133.5 196.02 130.83 194.7C130.5 194.53 130.33 194.7 130 194.53C127.33 193.21 124.33 192.39 122 190.24C121.16 189.42 121.5 188.1 121.66 186.94C123 177.54 124.83 168.46 125.33 159.06C125.5 156.25 125.83 153.45 126.16 150.48C126.33 148.66 126.83 147.01 127 145.2C127.5 142.89 128.16 140.91 128.83 138.76C129.16 137.77 129.66 136.95 130 135.96C131.5 132.66 133 129.36 136 127.05C136.5 126.72 137.16 126.55 137.66 126.72C139.33 127.05 140.66 128.03 142 129.03C144.5 130.51 147.16 131.83 150 131.17C151.33 132.33 152.5 133.81 153.72 135.24" stroke="#FFFFFF" stroke-opacity="1.000000" stroke-width="2.000000" stroke-linejoin="round" stroke-linecap="round"/>
		<path id="Vector" d="M148.42 152.44C149.16 152.46 149.83 152.46 150.5 152.46C154.83 153.12 159 153.78 163.33 154.27C163.83 154.27 164.5 154.6 165 154.6C169.83 155.1 174.66 155.42 179.5 154.93C180.66 154.77 181.66 154.44 182.83 154.11C183.16 153.94 183.5 153.61 183.83 153.45C184.83 153.12 186 152.78 187 152.46C191 150.64 194.66 148.83 198.66 146.85C200.5 145.86 202.16 145.03 203.83 143.88C204.16 143.71 204.33 143.55 204.5 143.22C204.66 142.89 204.66 142.39 204.66 142.06C204.33 140.74 204 139.42 202.66 138.76C200.66 138.92 198.66 139.42 196.66 139.92C191.16 141.4 186 142.56 180.33 143.88C177.66 144.53 175.16 143.55 172.66 142.56C170.33 141.4 167.66 140.74 165.16 139.92C161.5 138.43 157.37 136.59 153.72 135.24" stroke="#FFFFFF" stroke-opacity="1.000000" stroke-width="2.000000" stroke-linejoin="round" stroke-linecap="round"/>
		<path id="Vector" d="M416.21 178.85L416.81 179.61C416.81 179.61 419.8 182.36 419.22 184.32C418.63 186.27 415.93 187.57 415.56 189.96C415.2 192.35 413.74 193.65 412.42 193.65C411.11 193.65 406.15 193.65 406.15 193.65C406.15 193.65 405.18 191.97 407.52 191.47C409.86 190.96 410.74 188.15 410.59 185.55C410.52 184.22 410.55 183.11 410.63 181.91" stroke="#FFFFFF" stroke-opacity="1.000000" stroke-width="2.000000" stroke-linejoin="round" stroke-linecap="round"/>
		<path id="Vector" d="M380.09 187.27C380.22 188.57 380.57 192.77 379.46 193.32C379.16 193.48 378.09 193.58 376.62 193.65L362.44 193.65C362.48 193.23 362.81 191.74 365.13 191.37C367.75 190.95 372.29 189.44 373.3 186.13" stroke="#FFFFFF" stroke-opacity="1.000000" stroke-width="2.000000" stroke-linejoin="round" stroke-linecap="round"/>
		<path id="Vector" d="M366.43 105.91C366.77 110.15 367.29 116.72 367.76 122.64C369.18 140.56 370.88 162.56 371.05 166.72C371.34 173.96 372.51 185.54 372.51 185.54C372.51 185.54 375.29 188.29 380.85 187.13C380.85 187.13 385.8 170.6 387.21 153.12C387.23 152.83 387.25 152.54 387.28 152.25C387.46 149.75 387.8 144.7 388.01 141.57" stroke="#FFFFFF" stroke-opacity="1.000000" stroke-width="2.000000" stroke-linejoin="round" stroke-linecap="round"/>
		<path id="Vector" d="M372.1 105.21C376.69 116.32 388.12 143.47 396.42 158.19C406.94 176.85 410.23 182.06 410.23 182.06C410.23 182.06 416.26 179.68 416.81 178.05C416.81 178.05 412.78 142.01 405.73 133.22C401.75 128.26 397.07 113.36 396.85 108.15C396.7 104.44 396.2 99.58 395.83 96.26" stroke="#FFFFFF" stroke-opacity="1.000000" stroke-width="2.000000" stroke-linejoin="round" stroke-linecap="round"/>
		<path id="Vector" d="M318.24 77.79C316.87 77.52 315.69 77.3 315.44 77.31C314.71 77.36 312.15 78.42 312.12 78.63C312.08 78.83 312.2 79 312.65 79.03C313.09 79.06 314.54 78.87 314.45 79.05C314.36 79.22 310.17 80.03 310.12 80.87C310.07 81.7 312.37 83.25 314.31 83.36C316.25 83.46 319.68 81.61 320 81.58" stroke="#FFFFFF" stroke-opacity="1.000000" stroke-width="2.000000" stroke-linejoin="round" stroke-linecap="round"/>
		<path id="Vector" d="M350.03 70.79C346.89 73.05 344.43 74.76 343.43 75.33C336.6 79.2 320.79 81.39 320.79 81.39C320.79 81.39 319.72 80.48 319.23 78.94C318.6 76.98 318.75 76.66 318.75 76.66C318.75 76.66 336.35 67.24 337.96 66.29C338.78 65.8 344.52 59.73 349.33 54.74" stroke="#FFFFFF" stroke-opacity="1.000000" stroke-width="2.000000" stroke-linejoin="round" stroke-linecap="round"/>
		<path id="Vector" d="M337.8 28.06C338.13 30.26 343.36 40.02 345.97 39.2C345.97 39.2 346.7 38.91 347.7 38.38C347.82 38.57 348.58 39.77 350.06 41.64C350.54 42.25 351.1 42.93 351.74 43.68C350.59 45.61 350.16 48.04 350.01 49.27" stroke="#FFFFFF" stroke-opacity="1.000000" stroke-width="2.000000" stroke-linejoin="round" stroke-linecap="round"/>
		<path id="Vector" d="M358.27 35.66C356.89 34.88 355.46 33.98 354.04 32.37" stroke="#FFFFFF" stroke-opacity="1.000000" stroke-width="2.000000" stroke-linejoin="round" stroke-linecap="round"/>
		<path id="Vector" d="M351.84 65.34C349.8 59.51 348.69 53.1 349.71 49.45C349.72 49.44 349.72 49.42 349.73 49.4C355.88 46.59 358.27 35.66 358.27 35.66C358.27 35.66 379.26 39.4 391.01 67.09C391.01 67.09 399.8 90.75 396.38 95.63C392.44 101.23 363.01 108.72 363.36 104.84C363.49 103.36 363.67 100.74 363.36 97.19C363.28 96.36 363.18 95.48 363.04 94.55C362.39 90.11 361.77 86.38 358.8 80.01" stroke="#FFFFFF" stroke-opacity="1.000000" stroke-width="2.000000" stroke-linejoin="round" stroke-linecap="round"/>
		<path id="Vector" d="M328.57 91.11C328.57 91.11 324.46 91.26 323.56 91.58C322.66 91.9 319.83 94.13 319.86 94.4C319.9 94.67 320.11 94.84 320.67 94.72C321.24 94.6 323 93.85 322.94 94.11C322.89 94.36 317.93 96.86 318.17 97.93C318.41 98.99 321.85 100.13 324.32 99.57C326.8 99.02 330.46 95.11 330.86 94.96" stroke="#FFFFFF" stroke-opacity="1.000000" stroke-width="2.000000" stroke-linejoin="round" stroke-linecap="round"/>
		<path id="Vector" d="M374.03 56.12C369.45 63.76 360.22 78.92 357.52 81.51C351.52 87.28 331.43 95.34 331.43 95.34C331.43 95.34 330.09 94.6 329.17 93.14C328.01 91.28 328.85 90.43 328.85 90.43C328.85 90.43 346.78 76.52 348.19 75.12C349.6 73.71 353.26 60.83 353.26 60.83" stroke="#FFFFFF" stroke-opacity="1.000000" stroke-width="2.000000" stroke-linejoin="round" stroke-linecap="round"/>
		<path id="Vector" d="M355.41 17.92C355.41 17.92 354.96 17.77 354.43 17.88C354.16 17.22 353.93 16.15 352.72 15.79C352.72 15.79 352.96 16.27 353.22 16.98C351.51 15.9 348.34 15.59 340.42 18.2C329.98 21.64 335.2 27.64 336.78 28.12C338.36 28.61 341.27 25.52 343.89 25.1C346.51 24.68 347.93 28.29 348.93 28.59C349.93 28.89 349.36 28.06 350.4 27.24C351.45 26.42 352.05 28.36 352.03 29.71C352 31.07 354.04 32.36 354.04 32.36C354.04 32.36 354.04 32.36 355.24 30.19C356.44 28.02 356.11 20.14 354.97 18.72C354.87 18.6 354.77 18.47 354.66 18.34C354.73 18.21 354.93 18.06 355.41 17.92Z" stroke="#FFFFFF" stroke-opacity="1.000000" stroke-width="2.000000" stroke-linejoin="round"/>
		<path id="Vector" d="M428.98 193.65L428.98 313.9L307.98 313.9L307.98 193.65L428.98 193.65Z" stroke="#FFFFFF" stroke-opacity="1.000000" stroke-width="2.000000" stroke-linejoin="round"/>
		<path id="Vector" d="M400.46 193.65L400.46 313.9L307.98 313.9L307.98 193.65L400.46 193.65Z" stroke="#FFFFFF" stroke-opacity="1.000000" stroke-width="2.000000" stroke-linejoin="round"/>
	</g>
</svg>
