<svg width="500.000000" height="330.000000" viewBox="0 0 500 330" fill="none" xmlns="http://www.w3.org/2000/svg" xmlns:xlink="http://www.w3.org/1999/xlink">
	<desc>
			Created with Pixso.
	</desc>
	<defs>
		<clipPath id="clip377_0">
			<rect id="5867 1" width="500.000000" height="330.000000" fill="white" fill-opacity="0"/>
		</clipPath>
	</defs>
	<rect id="5867 1" width="500.000000" height="330.000000" fill="#FFFFFF" fill-opacity="0"/>
	<g clip-path="url(#clip377_0)">
		<path id="Vector" d="M99.26 133.42C99.26 133.42 102.46 133.42 104.49 133.42C134.09 133.42 158.1 157.18 158.1 186.49C158.1 215.8 134.1 239.57 104.49 239.57C102.19 239.57 97.66 239.53 97.66 239.53" stroke="#FFFFFF" stroke-opacity="1.000000" stroke-width="2.000000"/>
		<path id="Vector" d="M137.72 224.02C116.78 244.75 82.84 244.75 61.9 224.02C40.97 203.29 40.97 169.69 61.9 148.96C82.84 128.24 116.78 128.24 137.72 148.96C158.65 169.69 158.65 203.29 137.72 224.02Z" stroke="#FFFFFF" stroke-opacity="1.000000" stroke-width="2.000000"/>
		<path id="Vector" d="M65.27 221.31C56.05 212.18 50.97 200.04 50.97 187.12C50.97 174.2 56.05 162.06 65.27 152.93C74.5 143.8 86.77 138.77 99.81 138.77C112.86 138.77 125.12 143.8 134.35 152.93C143.57 162.06 148.65 174.2 148.65 187.12C148.65 200.04 143.57 212.18 134.35 221.31C125.13 230.44 112.86 235.47 99.81 235.47C86.77 235.47 74.5 230.44 65.27 221.31Z" stroke="#FFFFFF" stroke-opacity="1.000000" stroke-width="2.000000"/>
		<path id="Vector" d="M106.42 198.34C106.22 197.51 105.82 196.74 105.22 196.01C104.62 195.29 103.82 194.59 102.82 193.92C101.82 193.25 100.58 192.56 99.1 191.86C96.57 190.63 94.28 189.38 92.24 188.13C90.2 186.87 88.49 185.49 87.11 183.99C85.73 182.49 84.72 180.82 84.08 178.95C83.44 177.09 83.26 174.94 83.56 172.51C83.81 170.4 84.42 168.52 85.38 166.87C86.35 165.22 87.61 163.83 89.17 162.71C90.72 161.58 92.53 160.73 94.58 160.15C96.64 159.57 98.89 159.32 101.35 159.38L102.31 151.41L108.79 152.17L107.82 160.25C110.1 160.82 112.14 161.68 113.92 162.82C115.7 163.96 117.16 165.34 118.31 166.96C119.46 168.58 120.27 170.43 120.74 172.52C121.22 174.6 121.31 176.88 121.01 179.36L109.31 177.99C109.66 175.01 109.26 172.7 108.1 171.07C106.94 169.44 105.24 168.49 103 168.22C101.79 168.08 100.72 168.13 99.8 168.36C98.88 168.59 98.11 168.96 97.47 169.48C96.83 170 96.33 170.64 95.97 171.4C95.6 172.16 95.36 173 95.25 173.92C95.14 174.84 95.18 175.69 95.36 176.47C95.54 177.24 95.92 177.99 96.51 178.7C97.09 179.41 97.9 180.11 98.93 180.79C99.95 181.48 101.24 182.22 102.79 183.01C105.29 184.28 107.56 185.55 109.58 186.82C111.6 188.09 113.31 189.48 114.69 190.99C116.07 192.5 117.07 194.19 117.71 196.05C118.35 197.92 118.53 200.05 118.24 202.46C117.98 204.64 117.36 206.56 116.38 208.21C115.4 209.86 114.13 211.23 112.58 212.33C111.02 213.43 109.21 214.25 107.13 214.79C105.05 215.33 102.79 215.56 100.33 215.5L99.44 222.91L93 222.15L93.89 214.78C91.67 214.29 89.56 213.55 87.56 212.56C85.56 211.57 83.83 210.28 82.38 208.69C80.93 207.09 79.84 205.17 79.13 202.92C78.41 200.67 78.23 198.06 78.59 195.08L90.29 196.46C90.08 198.22 90.15 199.72 90.51 200.96C90.87 202.2 91.42 203.22 92.18 204.02C92.93 204.83 93.82 205.44 94.85 205.85C95.89 206.26 96.96 206.53 98.06 206.66C99.33 206.81 100.47 206.78 101.46 206.57C102.46 206.36 103.31 206.01 104.03 205.51C104.75 205.02 105.32 204.4 105.73 203.65C106.16 202.9 106.42 202.07 106.53 201.15C106.66 200.11 106.62 199.18 106.42 198.34Z" stroke="#FFFFFF" stroke-opacity="1.000000" stroke-width="2.000000"/>
		<path id="Vector" d="M395.36 127.86C395.36 127.86 396.51 126.09 397.23 124.97C407.87 108.59 429.91 103.86 446.45 114.39C462.99 124.93 467.78 146.74 457.13 163.12C456.31 164.39 454.66 166.88 454.66 166.88" stroke="#FFFFFF" stroke-opacity="1.000000" stroke-width="2.000000"/>
		<path id="Vector" d="M450.69 171.56C436.78 185.33 414.23 185.33 400.32 171.56C386.41 157.79 386.41 135.47 400.32 121.7C414.23 107.93 436.78 107.93 450.69 121.7C464.59 135.47 464.59 157.79 450.69 171.56Z" stroke="#FFFFFF" stroke-opacity="1.000000" stroke-width="2.000000"/>
		<path id="Vector" d="M432.74 178.24C424.27 180.06 415.59 178.51 408.3 173.87C401.02 169.23 395.99 162.05 394.15 153.67C392.31 145.28 393.88 136.69 398.57 129.47C403.26 122.26 410.51 117.28 418.98 115.46C427.45 113.64 436.12 115.2 443.41 119.84C450.7 124.48 455.73 131.65 457.57 140.04C459.41 148.42 457.84 157.02 453.15 164.23C448.46 171.45 441.21 176.43 432.74 178.24Z" stroke="#FFFFFF" stroke-opacity="1.000000" stroke-width="2.000000"/>
		<path id="Vector" d="M434.56 147.23C434.02 147.05 433.44 146.99 432.82 147.06C432.19 147.13 431.51 147.32 430.77 147.63C430.04 147.95 429.2 148.38 428.28 148.95C426.67 149.91 425.15 150.73 423.7 151.4C422.26 152.08 420.87 152.53 419.53 152.75C418.19 152.98 416.88 152.94 415.59 152.62C414.31 152.3 413.04 151.63 411.77 150.59C410.67 149.69 409.83 148.68 409.24 147.56C408.66 146.43 408.33 145.23 408.25 143.97C408.18 142.7 408.35 141.39 408.76 140.05C409.17 138.71 409.84 137.37 410.76 136.03L406.6 132.64L409.36 129.33L413.57 132.77C414.72 131.71 415.93 130.89 417.21 130.32C418.5 129.74 419.8 129.43 421.13 129.38C422.46 129.32 423.79 129.54 425.14 130.03C426.49 130.51 427.81 131.28 429.1 132.34L424.12 138.32C422.57 137.05 421.12 136.44 419.78 136.5C418.44 136.55 417.29 137.15 416.34 138.3C415.82 138.91 415.46 139.52 415.27 140.11C415.07 140.7 415 141.27 415.06 141.8C415.12 142.34 415.3 142.85 415.6 143.33C415.9 143.8 416.29 144.24 416.77 144.63C417.25 145.02 417.74 145.3 418.24 145.48C418.75 145.66 419.3 145.72 419.91 145.65C420.53 145.58 421.21 145.39 421.97 145.07C422.72 144.75 423.6 144.3 424.6 143.72C426.22 142.8 427.75 142 429.2 141.34C430.64 140.68 432.04 140.24 433.38 140.01C434.73 139.79 436.05 139.84 437.33 140.16C438.61 140.47 439.88 141.14 441.13 142.17C442.27 143.1 443.13 144.13 443.71 145.27C444.29 146.4 444.61 147.59 444.67 148.85C444.73 150.11 444.54 151.4 444.1 152.75C443.65 154.09 442.97 155.42 442.05 156.76L445.92 159.92L443.18 163.21L439.33 160.07C438.26 161.12 437.09 162.02 435.81 162.77C434.53 163.52 433.18 164.02 431.76 164.25C430.34 164.47 428.86 164.39 427.34 163.97C425.81 163.56 424.27 162.72 422.72 161.45L427.7 155.47C428.62 156.22 429.49 156.72 430.32 156.97C431.15 157.21 431.92 157.27 432.65 157.15C433.37 157.02 434.04 156.75 434.64 156.32C435.24 155.9 435.78 155.41 436.25 154.84C436.79 154.19 437.18 153.55 437.42 152.93C437.66 152.3 437.77 151.7 437.75 151.12C437.72 150.55 437.58 150.01 437.31 149.52C437.04 149.01 436.67 148.57 436.19 148.18C435.65 147.74 435.11 147.42 434.56 147.23Z" stroke="#FFFFFF" stroke-opacity="1.000000" stroke-width="2.000000"/>
		<path id="Vector" d="M216.82 40.13C216.82 40.13 217.1 41.41 217.28 42.23C219.9 54.16 212.25 65.93 200.2 68.52C188.15 71.11 176.26 63.54 173.65 51.61C173.45 50.68 173.06 48.86 173.06 48.86" stroke="#FFFFFF" stroke-opacity="1.000000" stroke-width="2.000000"/>
		<path id="Vector" d="M210.84 60.66C202.12 69.3 187.98 69.3 179.27 60.66C170.55 52.03 170.55 38.04 179.27 29.41C187.98 20.78 202.12 20.78 210.84 29.41C219.56 38.04 219.56 52.03 210.84 60.66Z" stroke="#FFFFFF" stroke-opacity="1.000000" stroke-width="2.000000"/>
		<path id="Vector" d="M177.69 34.19C180.63 29.67 185.17 26.55 190.48 25.41C195.79 24.27 201.23 25.24 205.8 28.15C210.37 31.06 213.52 35.56 214.67 40.82C215.83 46.08 214.84 51.46 211.9 55.99C208.96 60.51 204.42 63.63 199.11 64.77C193.8 65.91 188.36 64.94 183.79 62.03C179.22 59.12 176.07 54.62 174.92 49.36C173.76 44.11 174.75 38.72 177.69 34.19Z" stroke="#FFFFFF" stroke-opacity="1.000000" stroke-width="2.000000"/>
		<path id="Vector" d="M190.77 48.74C191.09 48.59 191.37 48.36 191.62 48.06C191.86 47.75 192.08 47.37 192.27 46.9C192.45 46.44 192.63 45.88 192.79 45.23C193.07 44.1 193.38 43.06 193.71 42.13C194.05 41.2 194.47 40.39 194.96 39.7C195.46 39.01 196.06 38.45 196.77 38.03C197.48 37.61 198.34 37.35 199.37 37.25C200.26 37.17 201.09 37.25 201.85 37.49C202.61 37.73 203.29 38.12 203.89 38.65C204.5 39.17 205.01 39.83 205.42 40.6C205.84 41.38 206.15 42.27 206.34 43.26L209.7 42.94L209.96 45.62L206.55 45.94C206.52 46.91 206.35 47.81 206.03 48.63C205.72 49.45 205.28 50.16 204.72 50.76C204.15 51.37 203.46 51.86 202.65 52.23C201.83 52.61 200.9 52.85 199.86 52.95L199.39 48.11C200.64 47.99 201.56 47.62 202.13 47.01C202.7 46.4 202.94 45.63 202.85 44.71C202.8 44.2 202.69 43.78 202.51 43.43C202.33 43.08 202.11 42.8 201.84 42.59C201.57 42.38 201.27 42.23 200.92 42.15C200.57 42.07 200.21 42.05 199.82 42.09C199.43 42.12 199.09 42.21 198.78 42.35C198.48 42.5 198.21 42.72 197.97 43.01C197.73 43.31 197.51 43.7 197.32 44.17C197.13 44.65 196.94 45.23 196.75 45.92C196.45 47.05 196.13 48.07 195.78 49C195.44 49.92 195.02 50.73 194.52 51.42C194.02 52.11 193.41 52.67 192.71 53.09C192 53.51 191.14 53.77 190.12 53.87C189.2 53.96 188.36 53.88 187.59 53.63C186.83 53.38 186.15 52.99 185.56 52.46C184.97 51.93 184.47 51.27 184.07 50.48C183.67 49.7 183.37 48.8 183.18 47.81L180.05 48.1L179.8 45.44L182.9 45.15C182.91 44.22 183.03 43.3 183.26 42.41C183.49 41.51 183.87 40.7 184.39 39.98C184.92 39.25 185.61 38.64 186.48 38.16C187.34 37.67 188.4 37.37 189.65 37.25L190.12 42.09C189.38 42.16 188.77 42.32 188.29 42.57C187.81 42.83 187.44 43.14 187.18 43.51C186.91 43.89 186.74 44.3 186.66 44.75C186.58 45.21 186.57 45.66 186.61 46.12C186.66 46.64 186.78 47.1 186.95 47.48C187.13 47.86 187.35 48.18 187.61 48.42C187.88 48.67 188.19 48.84 188.53 48.94C188.87 49.04 189.23 49.08 189.62 49.04C190.06 49 190.44 48.9 190.77 48.74Z" stroke="#FFFFFF" stroke-opacity="1.000000" stroke-width="2.000000"/>
		<path id="Vector" d="M259.69 260.93C252.73 259.86 245.95 266.69 242.9 271.04C240.91 273.87 234.77 273.5 233.44 273.39C233.44 273.39 232.58 269.18 242.37 256.23C244.48 253.43 250.91 242.91 250.91 242.91C253.46 242.3 260.42 246.8 262.51 248.07" stroke="#FFFFFF" stroke-opacity="1.000000" stroke-width="2.000000"/>
		<path id="Vector" d="M318.5 286.13C326.84 290.15 335.13 294.29 340.61 297.04C347.33 300.06 355.23 300.06 356.84 294.2C362.22 274.6 344.46 204.49 344.46 204.49" stroke="#FFFFFF" stroke-opacity="1.000000" stroke-width="2.000000"/>
		<path id="Vector" d="M278.14 249.02C268.36 248.28 262.5 248.07 262.5 248.07L259.5 261.78C264.33 263.1 272.81 266.2 279.18 268.69" stroke="#FFFFFF" stroke-opacity="1.000000" stroke-width="2.000000"/>
		<path id="Vector" d="M219.93 276.1C215.45 276.1 212.54 276.14 212.04 276.15C211.97 276.11 211.91 276.07 211.83 276.02C209.75 274.75 201.82 270.58 199.28 271.2C199.28 271.2 192.84 281.72 190.73 284.51C180.94 297.46 181.8 301.67 181.8 301.67C183.13 301.78 189.27 302.15 191.26 299.32C194.31 294.98 201.04 288.13 208.01 289.21C208.23 289.24 208.46 289.28 208.68 289.34C208.68 289.34 208.68 289.34 208.69 289.34L208.69 289.34C211.79 290 215.32 290.92 219.17 292.06" stroke="#FFFFFF" stroke-opacity="1.000000" stroke-width="2.000000"/>
		<path id="Vector" d="M333.21 26.56C333.21 26.56 333.07 26 331.67 25.34C330.28 24.69 328.81 23.03 328.55 21.41C328.28 19.81 326.61 16.8 327.08 16.49C328.23 15.72 329.95 20.39 330.96 20.6C331.87 20.79 332.16 20.15 332.21 20.02C332.22 20.01 332.22 20.01 332.22 20C333.81 16.18 330.88 6.54 333.2 6C334.07 5.8 338.96 10.42 339.68 12.04C341.35 15.86 342.69 20.86 341.55 23.5C340.27 26.49 340.19 26.64 340.19 26.64" stroke="#FFFFFF" stroke-opacity="1.000000" stroke-width="2.000000" stroke-linejoin="round" stroke-linecap="round"/>
		<path id="Vector" d="M181.33 91.33C181 90.91 178.94 88.67 178.9 87.15C178.86 85.62 177.91 83.62 176.53 82.73C175.15 81.84 173.05 79.11 172.57 79.41C171.4 80.14 175.02 83.59 174.8 84.59C174.61 85.49 173.9 85.5 173.76 85.49C173.75 85.49 173.75 85.49 173.74 85.49C169.57 85.38 161.85 78.83 160.41 80.72C159.88 81.43 162.16 87.72 163.38 89.02C166.22 92.08 170.3 95.31 173.2 95.35C176.48 95.4 177.22 96.07 177.22 96.07" stroke="#FFFFFF" stroke-opacity="1.000000" stroke-width="2.000000"/>
		<path id="Vector" d="M277.43 234.29C277.67 242.87 278.44 252.62 279.09 266.94C279.31 271.59 279.74 276.07 280.36 280.35C261.95 276.69 233.63 276.14 219.93 276.1C219.93 276.1 217.65 281.12 217.75 285.12C217.96 293.65 222.36 299.29 222.36 299.29C253.42 308.49 301.17 324.01 301.17 324.01C301.17 324.01 301.18 324 301.18 323.98C304.36 324.79 307.36 323.22 309.74 318.7C317.56 303.89 324.45 244.89 328.59 215.67" stroke="#FFFFFF" stroke-opacity="1.000000" stroke-width="2.000000" stroke-linejoin="round" stroke-linecap="round"/>
		<path id="Vector" d="M287.12 105.91C286.56 104.18 285.86 101.98 285.63 101.3C284.27 97.37 283.16 94.81 282.69 93.79C285.83 91.47 287.94 89.16 287.94 89.16C290.79 85.64 281.33 73.64 275.75 68.36" stroke="#FFFFFF" stroke-opacity="1.000000" stroke-width="2.000000"/>
		<path id="Vector" d="M262.32 90.74C262.83 91.17 263.4 91.86 263.58 92.27C263.83 92.87 263.94 93.29 263.81 93.76C263.8 94.21 263.63 94.67 263.28 94.96C263.58 95.23 263.88 95.5 264.18 95.78C264.57 96.15 264.98 96.47 265.39 96.76C266.99 101.71 267.32 106.43 267.2 109.61" stroke="#FFFFFF" stroke-opacity="1.000000" stroke-width="2.000000"/>
		<path id="Vector" d="M262.74 91.16C260.65 89.09 258.26 86.11 260.58 85.19C262.9 84.28 264.18 85.69 264.25 84.21C264.33 82.74 261.41 79.08 266.78 74.44C272.15 69.81 275.96 69.95 277.65 66.78C279.33 63.62 276.35 59.63 276.35 59.63C276.35 59.63 276.73 61.59 275.97 62.91C275.97 62.91 275.6 53.66 267.37 53.58C259.15 53.5 256.15 60.14 253.39 62.59C247.32 67.99 243.5 71.61 244.74 77.4C245.98 83.19 256.09 94.04 263.39 94.82C263.39 94.82 264.84 93.23 262.74 91.16Z" stroke="#FFFFFF" stroke-opacity="1.000000" stroke-width="2.000000" stroke-linejoin="round"/>
		<path id="Vector" d="M283.53 81.52C283.53 81.52 285.66 84.76 284.16 86.17C282.66 87.57 278.28 86.41 278.28 86.41L283.53 81.52Z" stroke="#FFFFFF" stroke-opacity="1.000000" stroke-width="2.000000" stroke-linejoin="round"/>
		<path id="Vector" d="M179.07 101.39C184.54 110.94 197.95 132.72 208.77 137.4C216.45 140.73 233.32 144.72 247.1 147.68C252.55 148.85 256.92 152.85 258.57 158.12C259.71 161.76 260.29 163.7 261.15 167.23" stroke="#FFFFFF" stroke-opacity="1.000000" stroke-width="2.000000"/>
		<path id="Vector" d="M264.51 116.22C264.51 116.22 220.88 117.07 214.23 113.92C209.36 111.61 193.75 100.45 185.96 94.85" stroke="#FFFFFF" stroke-opacity="1.000000" stroke-width="2.000000"/>
		<path id="Vector" d="M333.44 32.26C333.67 38.65 334.04 50.97 333.92 59.89C333.83 66.15 331.07 71.81 330.32 72.81C328.03 75.84 294.28 107.13 293.16 108.15" stroke="#FFFFFF" stroke-opacity="1.000000" stroke-width="2.000000"/>
		<path id="Vector" d="M263.68 179.26C269.17 210.45 265 234.4 265 234.4C265 234.4 277.42 235.78 292.89 231.53C313 226 327.69 217.04 327.69 217.04C333.36 210.24 330.01 185.29 330.01 185.29C330.01 185.29 333.92 189.48 335.23 196.46C336.17 201.5 336.68 204.28 337 206.05C337.29 207.71 339.25 208.49 340.62 207.49C343.53 205.36 347.68 202.04 348.97 199.6C353.5 191.1 343.43 156.46 329.53 132.28C327.04 127.96 327.13 122.65 329.79 118.43C338.34 104.84 351.49 83.3 351.65 78.97C351.74 76.63 350.94 65.34 349.64 57.43C348.13 48.18 344.33 37.69 342.17 32.22" stroke="#FFFFFF" stroke-opacity="1.000000" stroke-width="2.000000"/>
		<path id="Vector" d="M289.78 118.14C288.81 118.64 287 119.01 285.79 119.37C287.87 122.65 296.02 137.08 288.46 151.09C279.86 167.01 246.06 164.81 239.8 184.71L243.61 197.1L257.74 189.52C257.74 189.52 258.92 178.76 272.82 174.09C299.96 164.97 306.5 149.21 300.8 135.1C296.95 125.56 291.71 119.98 289.78 118.14Z" stroke="#FFFFFF" stroke-opacity="1.000000" stroke-width="2.000000" stroke-linejoin="round"/>
		<path id="Vector" d="M280.82 114.06L267.21 109.61C265.43 112.36 264.52 116.22 264.52 116.22L281.49 116.62L281.48 116.57C280.49 115.76 279.41 114.78 280.82 114.07L280.82 114.06Z" stroke="#FFFFFF" stroke-opacity="1.000000" stroke-width="2.000000" stroke-linejoin="round"/>
		<path id="Vector" d="M287.48 111.5C288.48 111.47 289.36 112.53 289.54 113.71C290.35 112.36 293.15 108.15 293.15 108.15C293.15 108.15 289.95 106.63 287.11 105.91L287.48 111.5Z" stroke="#FFFFFF" stroke-opacity="1.000000" stroke-width="2.000000" stroke-linejoin="round"/>
		<path id="Vector" d="M287.75 111.74C288.39 111.53 289.06 111.95 289.14 112.61L289.71 117.22C289.77 117.72 289.48 118.18 289 118.34L285.95 119.37C285.61 119.48 285.25 119.42 284.97 119.21L280.52 115.89C279.84 115.39 280.01 114.33 280.81 114.06L287.75 111.74Z" stroke="#FFFFFF" stroke-opacity="1.000000" stroke-width="2.000000" stroke-linejoin="round"/>
		<path id="Vector" d="M332.25 32.24C332.25 32.24 339.63 32.35 339.63 32.24C339.63 32.13 339.85 29.38 339.85 29.38L341.08 32.57L343.82 31.69L340.68 26.46C340.68 26.46 337.56 27.92 332.87 26.46L332.25 32.24Z" stroke="#FFFFFF" stroke-opacity="1.000000" stroke-width="2.000000" stroke-linejoin="round"/>
		<path id="Vector" d="M176.79 96.57L178.2 101.98L180.15 100.65L179.19 96.59L182.55 99.32L186.91 93.63L181.59 91.03L176.79 96.57Z" stroke="#FFFFFF" stroke-opacity="1.000000" stroke-width="2.000000" stroke-linejoin="round"/>
		<path id="Vector" d="M181.59 94.85C182.02 94.85 182.37 95.2 182.37 95.63C182.37 96.06 182.02 96.4 181.59 96.4C181.16 96.4 180.81 96.06 180.81 95.63C180.81 95.2 181.16 94.85 181.59 94.85Z" stroke="#FFFFFF" stroke-opacity="1.000000" stroke-width="2.000000"/>
		<path id="Vector" d="M336.13 29.95C336.13 29.5 336.49 29.14 336.94 29.14C337.39 29.14 337.75 29.51 337.75 29.95C337.75 30.4 337.39 30.76 336.94 30.76C336.49 30.75 336.13 30.4 336.13 29.95Z" fill="#FFFFFF" fill-opacity="1.000000" fill-rule="nonzero"/>
		<path id="Vector" d="M336.94 29.14C337.39 29.14 337.75 29.51 337.75 29.95C337.75 30.4 337.39 30.76 336.94 30.76C336.49 30.75 336.13 30.4 336.13 29.95C336.13 29.5 336.49 29.14 336.94 29.14Z" stroke="#FFFFFF" stroke-opacity="1.000000" stroke-width="2.000000"/>
		<path id="Vector" d="M327.62 163.81C328.14 163.81 328.57 164.23 328.57 164.75C328.57 165.27 328.14 165.69 327.62 165.69C327.1 165.69 326.67 165.27 326.67 164.75C326.67 164.23 327.1 163.81 327.62 163.81Z" stroke="#FFFFFF" stroke-opacity="1.000000" stroke-width="2.000000"/>
		<path id="Vector" d="M320.08 148.25C320.6 148.25 321.03 148.67 321.03 149.19C321.03 149.71 320.6 150.13 320.08 150.13C319.55 150.13 319.13 149.71 319.13 149.19C319.13 148.67 319.55 148.25 320.08 148.25Z" stroke="#FFFFFF" stroke-opacity="1.000000" stroke-width="2.000000"/>
		<path id="Vector" d="M309.69 136.48C310.21 136.48 310.64 136.9 310.64 137.42C310.64 137.94 310.21 138.36 309.69 138.36C309.16 138.36 308.74 137.94 308.74 137.42C308.74 136.9 309.16 136.48 309.69 136.48Z" stroke="#FFFFFF" stroke-opacity="1.000000" stroke-width="2.000000"/>
	</g>
</svg>
