<svg width="500.000000" height="330.000000" viewBox="0 0 500 330" fill="none" xmlns="http://www.w3.org/2000/svg" xmlns:xlink="http://www.w3.org/1999/xlink">
	<desc>
			Created with Pixso.
	</desc>
	<defs>
		<clipPath id="clip378_9285">
			<rect id="58673 1" width="500.000000" height="330.000000" fill="white" fill-opacity="0"/>
		</clipPath>
	</defs>
	<rect id="58673 1" width="500.000000" height="330.000000" fill="#FFFFFF" fill-opacity="0"/>
	<g clip-path="url(#clip378_9285)">
		<path id="Vector" d="M272.93 247.27L285.35 247.27" stroke="#FFFFFF" stroke-opacity="1.000000" stroke-width="2.000000" stroke-linejoin="round" stroke-linecap="round"/>
		<path id="Vector" d="M285.35 323.65L267.54 323.65C258.63 323.65 250.71 312.42 247.57 298.4" stroke="#FFFFFF" stroke-opacity="1.000000" stroke-width="2.000000" stroke-linejoin="round" stroke-linecap="round"/>
		<path id="Vector" d="M306.98 285.46C306.98 264.37 297.21 247.27 285.5 247.27C273.78 247.27 264.28 264.37 264.28 285.46C264.28 306.56 273.78 323.65 285.5 323.65C294.82 323.65 302.78 312.56 305.63 297.51" stroke="#FFFFFF" stroke-opacity="1.000000" stroke-width="2.000000" stroke-linejoin="round" stroke-linecap="round"/>
		<path id="Vector" d="M142.31 323.65L124.5 323.65C115.59 323.65 107.68 312.42 104.53 298.4" stroke="#FFFFFF" stroke-opacity="1.000000" stroke-width="2.000000" stroke-linejoin="round" stroke-linecap="round"/>
		<path id="Vector" d="M122.49 298.4C125.49 312.93 133.34 323.65 142.46 323.65C150.59 323.65 157.95 314.3 161.52 302.17" stroke="#FFFFFF" stroke-opacity="1.000000" stroke-width="2.000000" stroke-linejoin="round" stroke-linecap="round"/>
		<path id="Vector" d="M301.04 285.46C301.04 300.91 294.07 313.45 285.49 313.45C276.92 313.45 269.95 300.91 269.95 285.46C269.95 270.01 276.92 257.48 285.49 257.48C294.07 257.48 301.04 270.01 301.04 285.46Z" stroke="#FFFFFF" stroke-opacity="1.000000" stroke-width="2.000000" stroke-linejoin="round"/>
		<path id="Vector" d="M271.54 275.09C274.16 277.1 276.78 279.12 279.39 281.14C279.77 280.71 280.17 280.13 280.55 279.41C281.13 278.29 281.34 277.25 281.42 276.53C281.07 274.57 280.52 272.32 279.68 269.9C278.78 267.3 277.76 265.12 276.77 263.27" stroke="#FFFFFF" stroke-opacity="1.000000" stroke-width="2.000000" stroke-linejoin="round" stroke-linecap="round"/>
		<path id="Vector" d="M270.96 293.82C273.67 292.47 276.4 291.14 279.1 289.79C279.57 290.34 280.09 291.11 280.56 292.09C281.08 293.22 281.31 294.22 281.43 294.98C280.82 296.76 279.97 298.84 278.81 301.03C277.65 303.19 276.46 305.01 275.32 306.5" stroke="#FFFFFF" stroke-opacity="1.000000" stroke-width="2.000000" stroke-linejoin="round" stroke-linecap="round"/>
		<path id="Vector" d="M285.78 313.13C285.87 308.15 285.99 303.13 286.07 298.15C286.31 297.74 286.68 297.22 287.24 296.71C287.88 296.1 288.52 295.75 288.98 295.55C289.59 296.71 290.17 297.97 290.72 299.3C292.12 302.62 293.02 305.76 293.63 308.52" stroke="#FFFFFF" stroke-opacity="1.000000" stroke-width="2.000000" stroke-linejoin="round" stroke-linecap="round"/>
		<path id="Vector" d="M299.73 293.82C298.54 293.27 297.29 292.58 295.96 291.8C294.68 291.03 293.51 290.25 292.47 289.5C292.24 288.8 291.94 287.82 291.89 286.62C291.8 285.29 292 284.19 292.18 283.44C292.87 282.87 293.63 282.29 294.5 281.71C296.48 280.39 298.37 279.49 300.02 278.83" stroke="#FFFFFF" stroke-opacity="1.000000" stroke-width="2.000000" stroke-linejoin="round" stroke-linecap="round"/>
		<path id="Vector" d="M286.66 258.37C286.57 263.47 286.45 268.54 286.37 273.65C286.63 274.08 287.06 274.74 287.82 275.37C288.6 276.01 289.36 276.35 289.85 276.53C290.46 275.26 291.04 273.91 291.6 272.49C292.84 269.32 293.8 266.32 294.5 263.56" stroke="#FFFFFF" stroke-opacity="1.000000" stroke-width="2.000000" stroke-linejoin="round" stroke-linecap="round"/>
		<path id="Vector" d="M464.17 285.46C464.17 300.91 457.2 313.45 448.62 313.45C440.05 313.45 433.08 300.91 433.08 285.46C433.08 270.01 440.05 257.48 448.62 257.48C457.2 257.48 464.17 270.01 464.17 285.46Z" stroke="#FFFFFF" stroke-opacity="1.000000" stroke-width="2.000000" stroke-linejoin="round"/>
		<path id="Vector" d="M434.68 275.09C437.29 277.1 439.91 279.12 442.52 281.14C442.9 280.71 443.31 280.13 443.68 279.41C444.26 278.29 444.47 277.25 444.56 276.53C444.21 274.57 443.66 272.32 442.81 269.9C441.91 267.3 440.89 265.12 439.91 263.27" stroke="#FFFFFF" stroke-opacity="1.000000" stroke-width="2.000000" stroke-linejoin="round" stroke-linecap="round"/>
		<path id="Vector" d="M434.09 293.82C436.8 292.47 439.53 291.14 442.23 289.79C442.7 290.34 443.22 291.11 443.68 292.09C444.21 293.22 444.44 294.22 444.56 294.98C443.95 296.76 443.1 298.84 441.94 301.03C440.78 303.19 439.59 305.01 438.45 306.5" stroke="#FFFFFF" stroke-opacity="1.000000" stroke-width="2.000000" stroke-linejoin="round" stroke-linecap="round"/>
		<path id="Vector" d="M448.91 313.13C449 308.15 449.12 303.13 449.21 298.15C449.44 297.74 449.82 297.22 450.37 296.71C451.01 296.1 451.65 295.75 452.11 295.55C452.72 296.71 453.3 297.97 453.85 299.3C455.25 302.62 456.15 305.76 456.76 308.52" stroke="#FFFFFF" stroke-opacity="1.000000" stroke-width="2.000000" stroke-linejoin="round" stroke-linecap="round"/>
		<path id="Vector" d="M462.86 293.82C461.67 293.27 460.42 292.58 459.09 291.8C457.81 291.03 456.64 290.25 455.6 289.5C455.37 288.8 455.08 287.82 455.02 286.62C454.93 285.29 455.13 284.19 455.31 283.44C456.01 282.87 456.76 282.29 457.63 281.71C459.61 280.39 461.5 279.49 463.15 278.83" stroke="#FFFFFF" stroke-opacity="1.000000" stroke-width="2.000000" stroke-linejoin="round" stroke-linecap="round"/>
		<path id="Vector" d="M449.79 258.37C449.7 263.47 449.58 268.54 449.5 273.65C449.76 274.08 450.2 274.74 450.95 275.37C451.74 276.01 452.49 276.35 452.98 276.53C453.6 275.26 454.18 273.91 454.73 272.49C455.98 269.32 456.94 266.32 457.63 263.56" stroke="#FFFFFF" stroke-opacity="1.000000" stroke-width="2.000000" stroke-linejoin="round" stroke-linecap="round"/>
		<path id="Vector" d="M433.08 247.37L447.8 247.27" stroke="#FFFFFF" stroke-opacity="1.000000" stroke-width="2.000000" stroke-linejoin="round" stroke-linecap="round"/>
		<path id="Vector" d="M447.8 323.65L429.98 323.65C420.56 323.65 412.62 312.88 409.86 297.57" stroke="#FFFFFF" stroke-opacity="1.000000" stroke-width="2.000000" stroke-linejoin="round" stroke-linecap="round"/>
		<path id="Vector" d="M466.03 263.54C462.41 252.39 454.57 247.27 447.94 247.27C436.23 247.27 426.73 264.37 426.73 285.46C426.73 306.56 436.23 323.65 447.94 323.65C459.66 323.65 469.16 306.56 469.16 285.46C469.16 282.36 469.23 281.89 468.81 278.93" stroke="#FFFFFF" stroke-opacity="1.000000" stroke-width="2.000000" stroke-linejoin="round" stroke-linecap="round"/>
		<path id="Vector" d="M120.26 288.47C113.6 288.18 108.11 287.72 100.08 286.86C95.13 286.34 91.47 285.1 89.32 284.26C88.45 283.92 87.75 283.6 87.29 283.4C86.59 280.4 85.98 276.68 85.84 272.45C85.66 267.6 86.1 263.4 86.71 260.05C92.69 266.65 94.76 269.88 95.43 271.58C95.57 271.99 96.09 273.4 97.46 274.47C98.56 275.3 99.7 275.53 100.08 275.62C106.25 276.85 110.9 277.43 117.38 277.85" stroke="#FFFFFF" stroke-opacity="1.000000" stroke-width="2.000000" stroke-linejoin="round" stroke-linecap="round"/>
		<path id="Vector" d="M163 277.79C174.14 277.35 186.93 276.77 192.78 276.2C193.68 276.11 195.13 275.91 196.85 275.33C198.5 274.78 199.64 274.12 200.04 273.89C204.96 271.06 210.13 268.64 214.87 265.53C219.11 262.76 227.97 259.68 248.58 258.61C245.61 265.3 243.87 270.49 242.76 274.17C242.1 276.42 241.31 279.31 238.69 281.38C237.07 282.68 235.44 283.08 232.59 283.69C223.12 285.73 220.68 285.99 220.68 285.99C210.13 287.06 204.87 287.61 202.08 287.72C188.23 288.28 177.71 288.4 165.65 288.55" stroke="#FFFFFF" stroke-opacity="1.000000" stroke-width="2.000000" stroke-linejoin="round" stroke-linecap="round"/>
		<path id="Vector" d="M161.95 270.36C166.32 269.74 166.68 269.27 167.8 268.75C172.13 266.7 174.75 263.82 176.81 261.25C179.42 257.97 183.32 252.23 185.82 243.67C185.32 242.32 184.86 240.99 184.37 239.63C177.28 239.58 172.33 239.54 165.24 239.48" stroke="#FFFFFF" stroke-opacity="1.000000" stroke-width="2.000000" stroke-linejoin="round" stroke-linecap="round"/>
		<path id="Vector" d="M118.11 239.35C114.07 239.35 111.11 239.35 107.06 239.35C106.1 240.79 105.12 242.23 104.16 243.67C104.16 251.34 105.99 256.9 107.35 260.1C108.31 262.38 109.53 264.65 112 266.73C113.15 267.7 113.7 268.26 115.96 269.03" stroke="#FFFFFF" stroke-opacity="1.000000" stroke-width="2.000000" stroke-linejoin="round" stroke-linecap="round"/>
		<path id="Vector" d="M121.48 229.14C116.9 229.19 114.25 229.22 109.68 229.26C109.68 227.7 109.68 226.12 109.68 224.56C110.64 223.44 111.62 222.31 112.58 221.19C117.03 221.19 120.82 221.19 125.42 221.19" stroke="#FFFFFF" stroke-opacity="1.000000" stroke-width="2.000000" stroke-linejoin="round" stroke-linecap="round"/>
		<path id="Vector" d="M174.19 221.19C180.4 221.19 184.55 221.19 190.76 221.19C191.98 222.4 193.17 223.58 194.39 224.79C193.29 226.17 192.15 227.59 191.05 228.97C183.5 228.97 177.29 228.97 169.73 228.97" stroke="#FFFFFF" stroke-opacity="1.000000" stroke-width="2.000000" stroke-linejoin="round" stroke-linecap="round"/>
		<path id="Vector" d="M101.54 228.11C101.66 222.2 101.66 219.32 102.12 214.85C102.59 210.3 103.32 206.58 103.87 204.18C101.08 205.77 94.34 210.15 91.08 218.6C89.72 222.11 87.01 229.12 90.79 235.31C93.84 240.3 99.27 241.82 100.96 242.23C101.31 236.26 101.49 231.42 101.54 228.11Z" stroke="#FFFFFF" stroke-opacity="1.000000" stroke-width="2.000000" stroke-linejoin="round"/>
		<path id="Vector" d="M262.77 212.95C258.55 217.56 254.92 221.1 252.07 223.78C249.37 226.32 246.87 228.48 243.35 230.7C239.75 232.98 234.32 235.75 218.65 239.06C212.81 240.3 205.02 241.74 195.69 242.81C197.26 239.64 199.76 235.08 203.54 230.13C217.2 212.14 235.16 204.73 244.52 201.01C248.96 199.26 254.83 197.24 261.95 195.68C267.04 194.56 272.79 193.66 279.1 193.23C273.02 201.27 267.5 207.76 262.77 212.95Z" stroke="#FFFFFF" stroke-opacity="1.000000" stroke-width="2.000000" stroke-linejoin="round"/>
		<path id="Vector" d="M263.7 203.9C263.47 200.41 262.62 197.61 261.96 195.82C261.96 195.77 261.96 195.74 261.96 195.68C267.04 194.56 272.79 193.66 279.1 193.23C273.03 201.27 267.51 207.76 262.77 212.95C263.38 210.61 263.93 207.61 263.7 203.9Z" stroke="#FFFFFF" stroke-opacity="1.000000" stroke-width="2.000000" stroke-linejoin="round"/>
		<path id="Vector" d="M270.36 137.87C274.42 137.82 274.37 137.85 278.33 137.86C291.96 137.92 304.98 138.41 317.3 139.19C311.11 145.93 306.78 151.9 303.93 156.2C300.85 160.84 297.71 165.39 294.63 170.03C291.41 174.9 289.57 177.7 285.91 180.12C282.48 182.37 279.23 183.12 276.9 183.58C263.36 186.29 247.26 186.17 247.26 186.17L220.82 186.75C220.82 186.75 214.27 186.85 210.52 186.89" stroke="#FFFFFF" stroke-opacity="1.000000" stroke-width="2.000000" stroke-linejoin="round" stroke-linecap="round"/>
		<path id="Vector" d="M167.17 187.03C159.2 186.98 148.54 186.89 139.16 186.75C140.55 185.28 142.62 183.14 145.26 180.69C151.86 174.56 157.79 170.46 169.38 162.54C170.63 161.67 180.08 155.22 189 149.8C192.8 147.49 196.7 145.24 196.7 145.24C199.2 143.8 201.29 142.62 202.8 141.78C211.05 140.89 219.59 140.12 228.42 139.5" stroke="#FFFFFF" stroke-opacity="1.000000" stroke-width="2.000000" stroke-linejoin="round" stroke-linecap="round"/>
		<path id="Vector" d="M400.01 145.11C404.52 146.55 408 148 410.39 149.06C410.68 149.2 410.94 149.32 411.2 149.43C411.64 149.64 412.04 149.84 412.48 150.04C416.55 151.97 419.95 153.87 422.54 155.49C423.61 158.71 424.63 162.81 425.15 167.59C425.82 173.53 425.47 178.66 424.89 182.55C423.9 182.66 422.88 182.78 421.86 182.87C420.28 183.04 417.62 183.35 416.01 183.55" stroke="#FFFFFF" stroke-opacity="1.000000" stroke-width="2.000000" stroke-linejoin="round" stroke-linecap="round"/>
		<path id="Vector" d="M372.43 190.51C356.78 193.61 340.58 197.5 326.84 201.34C323.03 202.41 319.31 203.48 315.68 204.57C315.45 204.63 315.24 204.72 315.01 204.78C311.99 202.59 308.94 200.42 305.91 198.23C303.33 196.39 300.74 194.52 298.16 192.67C300.77 187.11 303.45 182.12 306 177.77C308.82 172.98 311.5 168.92 313.85 165.58C316.58 161.71 318.94 158.69 321.03 156.27C325.1 151.57 328.12 149.17 330.7 147.42C337.01 143.15 342.47 141.45 343.78 141.08C346.83 140.17 349.73 139.72 352.53 139.5" stroke="#FFFFFF" stroke-opacity="1.000000" stroke-width="2.000000" stroke-linejoin="round" stroke-linecap="round"/>
		<path id="Vector" d="M320.86 156.46C322.52 162.97 323.97 170.03 325.02 177.95C325.29 180.04 325.63 182.53 325.83 184.55" stroke="#FFFFFF" stroke-opacity="1.000000" stroke-width="2.000000" stroke-linejoin="round" stroke-linecap="round"/>
		<path id="Vector" d="M326.56 195.68C326.65 197.93 326.65 199.12 326.67 201.33" stroke="#FFFFFF" stroke-opacity="1.000000" stroke-width="2.000000" stroke-linejoin="round" stroke-linecap="round"/>
		<path id="Vector" d="M421.67 182.88C420.25 177.44 418.56 171.76 416.56 165.85C414.55 159.88 412.4 154.26 410.22 149.04C410.51 149.19 410.77 149.3 411.03 149.42" stroke="#FFFFFF" stroke-opacity="1.000000" stroke-width="2.000000" stroke-linejoin="round" stroke-linecap="round"/>
		<path id="Vector" d="M325.57 186.6C325.63 185.33 325.91 183 327.4 180.55C327.61 180.17 329.68 176.89 333.78 175.07C341.52 171.67 349.88 176.57 352.01 177.95C353.44 178.88 360.3 183.34 359.3 187.46C358.57 190.43 354.17 191.64 348.36 193.23C346.26 193.81 338.76 195.74 318.58 195.82C317.3 195.82 316.24 195.82 315.54 195.82C315.3 195.56 313.57 193.64 314.02 190.92C314.45 188.39 316.43 187.09 316.76 186.89C319.71 186.8 322.63 186.69 325.57 186.6Z" stroke="#FFFFFF" stroke-opacity="1.000000" stroke-width="2.000000" stroke-linejoin="round"/>
		<path id="Vector" d="M234.72 224.52C233.89 219.4 228.43 216.01 222.54 216.95C216.64 217.89 212.54 222.81 213.37 227.93C214.2 233.05 219.66 236.44 225.55 235.5C231.45 234.56 235.55 229.64 234.72 224.52Z" stroke="#FFFFFF" stroke-opacity="1.000000" stroke-width="2.000000" stroke-linejoin="round"/>
		<path id="Vector" d="M252.84 208.43C252.45 206.05 249.92 204.48 247.17 204.92C244.43 205.36 242.52 207.64 242.91 210.01C243.3 212.39 245.83 213.95 248.57 213.51C251.31 213.08 253.22 210.8 252.84 208.43Z" stroke="#FFFFFF" stroke-opacity="1.000000" stroke-width="2.000000" stroke-linejoin="round"/>
		<path id="Vector" d="M208.67 236.15C208.44 234.73 206.93 233.8 205.3 234.06C203.67 234.32 202.53 235.68 202.76 237.09C202.99 238.51 204.5 239.44 206.13 239.18C207.76 238.92 208.9 237.56 208.67 236.15Z" stroke="#FFFFFF" stroke-opacity="1.000000" stroke-width="2.000000" stroke-linejoin="round"/>
		<path id="Vector" d="M96.96 234.97C92.66 233.82 91.49 227.66 91.37 226.96C91.31 226.55 90.24 219.81 94.28 217.16C94.42 217.07 97.45 215.14 99.8 216.58C100.88 217.24 101.59 218.32 101.8 218.9" stroke="#FFFFFF" stroke-opacity="1.000000" stroke-width="2.000000" stroke-linejoin="round" stroke-linecap="round"/>
		<path id="Vector" d="M97.48 236.18C96.72 235.25 96.81 233.9 97.48 233.01C98.29 231.94 99.95 231.62 101.25 232.43C101.25 233.79 101.25 235.11 101.25 236.47C100 237.42 98.32 237.21 97.48 236.18Z" stroke="#FFFFFF" stroke-opacity="1.000000" stroke-width="2.000000" stroke-linejoin="round"/>
		<path id="Vector" d="M202.67 278.55C208.37 272.03 215.37 269.55 220.98 267.59C227.43 265.35 232.87 264.6 236.38 264.14C238.88 263.82 240.97 263.64 242.48 263.56C242.31 267.07 241.38 274.48 235.8 278.55C234.81 279.27 233.77 279.73 231.73 280.56C228.01 282.12 224.61 283.07 208.78 284.89C207.9 284.97 206.31 285.15 204.41 284.6C202.41 284.02 200.96 282.87 200.06 282.01C200.61 281.14 201.48 279.93 202.67 278.55Z" stroke="#FFFFFF" stroke-opacity="1.000000" stroke-width="2.000000" stroke-linejoin="round"/>
		<path id="Vector" d="M86.16 264.43C87.48 265.88 88.44 267.03 89.22 267.99C91.54 270.84 92.62 272.57 94.74 276.06C95.52 277.35 96.19 278.51 96.19 280.09C96.19 280.61 96.19 282.46 95.03 283.26C93.37 284.42 90.29 282.74 88.64 281.24L86.53 279.53" stroke="#FFFFFF" stroke-opacity="1.000000" stroke-width="2.000000" stroke-linejoin="round" stroke-linecap="round"/>
		<path id="Vector" d="M118.22 281.48C109.27 280.82 107.01 280.36 98.93 279.12C98.93 280.19 98.93 281.23 98.93 282.29C106.98 283.39 110.23 283.89 119.04 284.5" stroke="#FFFFFF" stroke-opacity="1.000000" stroke-width="2.000000" stroke-linejoin="round" stroke-linecap="round"/>
		<path id="Vector" d="M164.68 285.17C176.33 284.79 186.09 284.03 195.41 282.87C195.32 281.8 195.2 280.76 195.12 279.7C185.81 280.99 176.06 281.83 163.94 282.23" stroke="#FFFFFF" stroke-opacity="1.000000" stroke-width="2.000000" stroke-linejoin="round" stroke-linecap="round"/>
		<path id="Vector" d="M375.64 216.33C373.31 217 374.13 216.78 371.8 217.44C371.13 216.84 370.23 215.89 369.48 214.56C369.3 214.27 369.16 213.98 369.01 213.7C368.37 212.31 368.11 211.07 368.03 210.24C368.67 209.52 369.62 208.65 370.93 207.93C374.13 206.2 374.89 206.32 374.89 206.32" stroke="#FFFFFF" stroke-opacity="1.000000" stroke-width="2.000000" stroke-linejoin="round" stroke-linecap="round"/>
		<path id="Vector" d="M318.62 284.02C345.01 282.73 349.83 282.37 366.43 281.25" stroke="#FFFFFF" stroke-opacity="1.000000" stroke-width="2.000000" stroke-linejoin="round" stroke-linecap="round"/>
		<path id="Vector" d="M103.87 204.18C104.77 202.89 106.75 199.7 108 198.43C109.74 196.67 111.21 195.03 113.45 193.54C115.28 192.3 117.9 190.74 127.83 186.82C129.46 186.19 130.88 185.64 132.22 185.18C133.64 184.69 134.49 184.4 135.1 184.23C135.85 184 136.17 183.88 136.75 183.65C138.67 182.84 139.75 181.95 142.1 179.96C142.48 179.64 142.89 179.27 143.35 178.89C144.34 178.06 145.39 177.25 146.37 176.44C147.51 175.55 148.64 174.63 149.75 173.71C154.16 169.9 162.15 164.14 172.21 157.51C188.63 146.67 197.9 140.82 206.29 136.98C217.78 131.74 237.46 129.14 255.27 128.09" stroke="#FFFFFF" stroke-opacity="1.000000" stroke-width="2.000000" stroke-linejoin="round" stroke-linecap="round"/>
		<path id="Vector" d="M124.14 298.4L90.17 298.37C90.14 298.37 90.14 298.37 90.11 298.37C85.37 298.03 82.26 296.65 80.81 294.28C79.65 292.38 80.05 290.71 80.61 288.43C81.1 286.39 81.77 283.56 81.59 279.26C81.57 278.57 81.51 277.91 81.48 277.28C81.33 275.34 81.22 273.5 81.59 270.76C81.91 268.63 82.38 267.16 82.79 265.86C82.9 265.54 82.99 265.23 83.08 264.91C84.07 261.54 84.04 259.66 84.01 257.1C83.98 254.97 83.95 252.31 84.5 248.02C84.85 245.34 85.37 241.3 87.15 236.35C87.9 234.22 89.23 231.48 89.23 231.48" stroke="#FFFFFF" stroke-opacity="1.000000" stroke-width="2.000000" stroke-linejoin="round" stroke-linecap="round"/>
		<path id="Vector" d="M360.28 297.57L305.91 297.57C305.68 297.57 305.48 297.48 305.36 297.31C305.24 297.13 305.16 296.9 305.22 296.7C307.6 285.81 310.1 265.14 300.07 249.4C298.18 246.44 294.7 240.93 288.94 239.92C288.33 239.81 287.69 239.75 287.06 239.75C280.25 239.75 274.18 245.97 271.59 248.63C262.73 257.71 260.61 269.35 260.17 272.72C258.57 284.97 257.59 292.41 257.56 293.07C257.62 293.76 257.5 294.48 257.21 295.12C256.16 297.13 253.58 298.4 250.29 298.4C250 298.4 249.71 298.4 249.39 298.37L169.2 298.39" stroke="#FFFFFF" stroke-opacity="1.000000" stroke-width="2.000000" stroke-linejoin="round" stroke-linecap="round"/>
		<path id="Vector" d="M394.06 135.75C397.72 136.56 397.84 136.7 401.08 137.63C409.42 140.02 417.65 142.93 425.58 146.31C425.73 146.37 425.85 146.48 425.93 146.62C434.65 162.42 441.71 178.85 446.86 195.42C447.09 196.11 447.29 196.8 447.49 197.5C449.59 204.42 450.2 207.7 450.75 210.61C451.3 213.55 451.74 215.88 453.6 221.1C456.1 228.05 458.86 233.93 461.27 239.12C466.33 249.87 471.87 258.61 470.88 270.34C470.65 273.11 469.99 275.78 469.23 278.46C469.15 278.78 468.85 278.98 468.53 278.98C468.51 278.98 468.47 278.98 468.47 278.98C468.13 278.95 467.83 278.66 467.83 278.31C467.57 274.91 467.36 271.42 466.84 267.96C465.47 258.85 463.19 254.53 460.45 250.27C459.38 248.57 457.11 245.08 452.58 242.75L452.55 242.75C451.33 242.11 448.08 240.44 444.27 240.44C442.9 240.44 441.59 240.67 440.37 241.07C436.89 242.29 435 244.82 432.58 248.02C429.53 252.12 428.26 255.89 426.89 259.93C425.17 264.97 424.45 269.09 423.43 274.8C423.02 277.1 422.82 278.51 422.59 280.01C422.36 281.54 422.15 283.1 421.69 285.75C421.02 289.55 420.23 293.33 419.36 297.02C419.27 297.34 418.98 297.57 418.66 297.57L399.88 297.57" stroke="#FFFFFF" stroke-opacity="1.000000" stroke-width="2.000000" stroke-linejoin="round" stroke-linecap="round"/>
		<path id="Vector" d="M359.02 300.45C355.44 300.39 351.32 300.1 346.81 299.3C344.08 298.81 341.55 298.23 339.26 297.57" stroke="#FFFFFF" stroke-opacity="1.000000" stroke-width="2.000000" stroke-linejoin="round" stroke-linecap="round"/>
		<path id="Vector" d="M258.55 125.8C247.5 127.38 238.59 129.53 238.59 129.53" stroke="#FFFFFF" stroke-opacity="1.000000" stroke-width="2.000000" stroke-linejoin="round" stroke-linecap="round"/>
		<path id="Vector" d="M347.23 131.14C355.39 143.05 363.64 158.18 369.48 178.53C385.55 234.51 366.86 282.9 359.02 300.45C372.01 300.54 384.97 300.65 397.96 300.74C405.4 288.81 420.62 260.82 420.91 222.34C421.26 175.51 399.29 142.71 391.27 131.84C383.9 130.17 372.89 127.95 362.59 126.4" stroke="#FFFFFF" stroke-opacity="1.000000" stroke-width="2.000000" stroke-linejoin="round" stroke-linecap="round"/>
		<path id="Vector" d="M171 302.47C175.56 302.81 181.58 302.76 188.43 301.32C192.47 300.48 195.66 299.58 198.59 298.4" stroke="#FFFFFF" stroke-opacity="1.000000" stroke-width="2.000000" stroke-linejoin="round" stroke-linecap="round"/>
		<path id="Vector" d="M293.85 129.67C268.11 136.56 251.1 147.46 240.45 156.63C227.93 167.41 228.71 171.5 210.52 186.89C194.77 200.24 184.28 205.54 174.2 221.19C168.15 230.58 165.48 238.71 164.9 240.5C156.41 267.01 166.18 292.06 171 302.47C155.8 301.98 140.57 301.51 125.37 301.03C120.87 291.75 110.61 267.21 118.11 239.35C119.36 234.68 121.71 226.26 127.99 217.15C138.92 201.33 150.54 199.66 171.29 184.58C188.99 171.7 186.46 168.58 202.96 155.76C213.75 147.4 230.57 136.48 255.27 128.09" stroke="#FFFFFF" stroke-opacity="1.000000" stroke-width="2.000000" stroke-linejoin="round" stroke-linecap="round"/>
		<path id="Vector" d="M289.79 128.16C278.43 128.73 267.05 127.49 264.22 126.94C248.12 123.74 236.82 121.49 231.67 111.95C224.96 99.53 232.11 81.08 243.3 71.89C264.25 54.68 294.68 67.78 310.67 79.07" stroke="#FFFFFF" stroke-opacity="1.000000" stroke-width="2.000000" stroke-linejoin="round" stroke-linecap="round"/>
		<path id="Vector" d="M278.64 119.13C280.32 123.74 285 126.16 288.78 127.75C315.74 139.1 343.99 132.16 349.45 130.54C365.2 125.87 376.22 122.62 380.46 112.61C385.98 99.61 377.15 81.92 365.14 73.79C342.65 58.6 309.73 77.42 294.88 90.13C292.64 92.03 274.45 107.6 278.64 119.13Z" stroke="#FFFFFF" stroke-opacity="1.000000" stroke-width="2.000000" stroke-linejoin="round"/>
		<path id="Vector" d="M341.05 68.36C321.35 74.94 310.75 93.97 314.82 109.73C319.14 126.54 338.43 132.46 339.36 132.74" stroke="#FFFFFF" stroke-opacity="1.000000" stroke-width="2.000000" stroke-linejoin="round" stroke-linecap="round"/>
		<path id="Vector" d="M324.54 78.56C338.2 83.66 346.55 96.47 345.97 109.16C345.39 121.69 336.11 129.45 334.42 130.8" stroke="#FFFFFF" stroke-opacity="1.000000" stroke-width="2.000000" stroke-linejoin="round" stroke-linecap="round"/>
		<path id="Vector" d="M163.71 129.45C163.71 129.45 160.97 128.67 157.73 127.79" stroke="#FFFFFF" stroke-opacity="1.000000" stroke-width="2.000000" stroke-linejoin="round" stroke-linecap="round"/>
		<path id="Vector" d="M167.36 160.71C167.47 153.15 167.76 145.81 167.42 140.12" stroke="#FFFFFF" stroke-opacity="1.000000" stroke-width="2.000000" stroke-linejoin="round" stroke-linecap="round"/>
		<path id="Vector" d="M120.66 184.35C120.6 186.16 120.53 188.22 120.5 189.8" stroke="#FFFFFF" stroke-opacity="1.000000" stroke-width="2.000000" stroke-linejoin="round" stroke-linecap="round"/>
		<path id="Vector" d="M138.09 123.07C137.58 122.97 136.93 122.84 136.44 122.75C134.67 121.79 132.7 120.77 131.21 120.18C127.7 118.77 114.01 99.07 111.69 94.35C109.38 89.64 105.53 69.1 105.53 69.1L100.2 70.78C100.2 70.78 98.6 93.84 99.37 99.85C100.14 105.86 117.08 131.71 118.49 133.97C121.18 143.72 121.45 157.25 121.19 169.13" stroke="#FFFFFF" stroke-opacity="1.000000" stroke-width="2.000000" stroke-linejoin="round" stroke-linecap="round"/>
		<path id="Vector" d="M106.97 63.74C107.04 63.35 107.04 63.23 107.08 62.87" stroke="#FFFFFF" stroke-opacity="1.000000" stroke-width="2.000000" stroke-linejoin="round" stroke-linecap="round"/>
		<path id="Vector" d="M105.57 60.11C103.04 59.96 98.53 60.12 97.93 61.42C97.24 62.88 100.2 70.78 100.2 70.78L105.53 69.1" stroke="#FFFFFF" stroke-opacity="1.000000" stroke-width="2.000000" stroke-linejoin="round" stroke-linecap="round"/>
		<path id="Vector" d="M30.37 80.04C31.16 78.75 32.41 77.89 33.78 77.56C35.16 77.23 36.66 77.41 37.96 78.19C39.11 78.88 40.61 78.51 41.31 77.37L44 72.96L48.17 75.45L45.47 79.87C45.12 80.44 45.04 81.09 45.19 81.69C45.34 82.29 45.72 82.84 46.29 83.18C47.6 83.96 48.46 85.19 48.8 86.55C49.14 87.91 48.95 89.4 48.16 90.69L30.37 80.04Z" stroke="#FFFFFF" stroke-opacity="1.000000" stroke-width="2.000000" stroke-linejoin="round"/>
		<path id="Vector" d="M46.84 69.48C47.86 67.23 47.65 64.68 46.2 63.08C39.27 55.41 36.67 42.72 43.3 31.87L53.05 11.12L100.2 39.35L85.8 57.32C80.8 65.51 72.15 69.44 63.86 69.77C63.85 69.77 63.85 69.77 63.85 69.77C61.03 69.88 58.25 69.57 55.66 68.88C53.64 68.33 51.32 69.34 49.93 71.33" stroke="#FFFFFF" stroke-opacity="1.000000" stroke-width="2.000000" stroke-linejoin="round" stroke-linecap="round"/>
		<path id="Vector" d="M39.86 40.85C39.03 37.35 36.77 34.82 34.39 32.17C31.6 29.06 28.73 25.85 28.11 21.07C27.42 15.77 29.91 10.37 34.31 7.61C37.65 5.52 41.35 5.46 44.45 7.42C47.88 9.61 49.63 13.38 49.62 18.47" stroke="#FFFFFF" stroke-opacity="1.000000" stroke-width="2.000000" stroke-linejoin="round" stroke-linecap="round"/>
		<path id="Vector" d="M43.3 31.87C43.38 31.7 50.98 15.17 42.8 9.96C39.98 8.17 37.29 9.32 35.94 10.16C32.58 12.27 30.6 16.6 31.13 20.69C31.63 24.55 34.08 27.28 36.67 30.16C38.27 31.95 39.94 33.79 41.22 36.06" stroke="#FFFFFF" stroke-opacity="1.000000" stroke-width="2.000000" stroke-linejoin="round" stroke-linecap="round"/>
		<path id="Vector" d="M79.19 64.52C82.74 63.6 86.17 64.41 89.67 65.27C93.74 66.27 97.95 67.3 102.51 65.62C107.57 63.76 111.25 59.06 111.67 53.93C111.99 50.03 110.34 46.76 107.14 44.96C103.83 43.1 99.76 43.19 95.57 45.12" stroke="#FFFFFF" stroke-opacity="1.000000" stroke-width="2.000000" stroke-linejoin="round" stroke-linecap="round"/>
		<path id="Vector" d="M97.86 63.57C95.39 63.67 92.89 63.06 90.32 62.43C88 61.86 85.49 61.25 82.9 61.18" stroke="#FFFFFF" stroke-opacity="1.000000" stroke-width="2.000000" stroke-linejoin="round" stroke-linecap="round"/>
		<path id="Vector" d="M85.72 57.41C85.83 57.26 97.09 42.91 105.54 47.67C108.46 49.31 108.68 52.2 108.55 53.78C108.36 56.1 107.25 58.36 105.57 60.11" stroke="#FFFFFF" stroke-opacity="1.000000" stroke-width="2.000000" stroke-linejoin="round" stroke-linecap="round"/>
		<path id="Vector" d="M42.05 71.79C41 71.16 40.66 69.79 41.3 68.75C41.93 67.7 43.32 67.37 44.37 68L52.14 72.65C53.19 73.28 53.53 74.65 52.9 75.69C52.26 76.74 50.88 77.07 49.82 76.44L42.05 71.79Z" stroke="#FFFFFF" stroke-opacity="1.000000" stroke-width="2.000000" stroke-linejoin="round"/>
		<path id="Vector" d="M53.03 49.24C56.98 51.35 57.49 51.1 59.11 48.45L67.27 35.1C68.41 33.22 67.83 32.67 66.42 31.57L65.42 30.71L66.16 29.5C69.23 30.88 72.88 32.06 75.55 32.6L64.07 51.41C62.4 54.14 62.42 54.61 66.11 57.07L65.27 58.43L52.2 50.6L53.03 49.24Z" stroke="#FFFFFF" stroke-opacity="1.000000" stroke-width="2.000000" stroke-linejoin="round"/>
		<path id="Vector" d="M97.93 61.41C97.93 61.41 97.64 64.4 98.61 64.96C99.57 65.52 99.92 61.41 99.92 61.41C99.92 61.41 99.97 64.78 100.71 65.01C101.45 65.24 101.91 61.13 101.91 61.13C101.91 61.13 101.98 64.4 102.49 64.28C102.99 64.17 103.33 61.13 103.33 61.13C103.33 61.13 103.55 63.5 104.24 63.08C104.92 62.65 105.57 60.11 105.57 60.11" stroke="#FFFFFF" stroke-opacity="1.000000" stroke-width="1.000000" stroke-linejoin="round" stroke-linecap="round"/>
		<path id="Vector" d="M105.53 69.09C105.53 69.09 107.6 67.49 108.05 66.03C108.51 64.57 109.84 62.11 109.13 61.81C108.68 61.62 107.63 62.85 106.95 63.76C106.57 64.28 106.34 64.68 106.34 64.68" stroke="#FFFFFF" stroke-opacity="1.000000" stroke-width="2.000000" stroke-linejoin="round" stroke-linecap="round"/>
		<path id="Vector" d="M154.71 123.12C154.74 120.54 154.65 119.97 155.03 117.9C155.17 117.14 155.38 116.33 155.71 115.44" stroke="#FFFFFF" stroke-opacity="1.000000" stroke-width="2.000000" stroke-linejoin="round" stroke-linecap="round"/>
		<path id="Vector" d="M142.03 116.38L141.25 120.39" stroke="#FFFFFF" stroke-opacity="1.000000" stroke-width="2.000000" stroke-linejoin="round" stroke-linecap="round"/>
		<path id="Vector" d="M155.56 115.91C152.01 119.5 145.13 117.62 142.12 116.42C141.16 116.03 140.57 115.73 140.57 115.73C139.54 115.13 139.41 113.21 139.77 110.85C140.47 106.17 143.08 99.73 144.33 98.25" stroke="#FFFFFF" stroke-opacity="1.000000" stroke-width="2.000000" stroke-linejoin="round" stroke-linecap="round"/>
		<path id="Vector" d="M152.58 90.77C156.46 90.24 160.36 93.09 161.57 94.23C161.59 93.99 161.59 93.66 161.46 93.29C161.46 93.29 161.97 93.91 161.89 94.56C161.94 94.63 161.96 94.67 161.94 94.67C161.94 94.67 162.69 94.74 163.1 95.08C163.1 95.08 162.79 94.94 162.61 95.12C162.6 95.14 162.57 95.15 162.55 95.16C167.21 99.24 165.32 107.82 163.03 109.29C160.27 111.07 155.54 115.94 155.54 115.94C155.54 115.94 155.7 114.16 156.67 112.19C157.63 110.23 155.83 109.73 153.82 108.16C151.81 106.58 154.45 104.48 152.91 102.32C151.37 100.17 143.79 99.08 144.23 97.88C141.79 96.15 144.02 90.97 144.1 90.69C144.1 90.69 147.79 91.42 152.58 90.77Z" stroke="#FFFFFF" stroke-opacity="1.000000" stroke-width="2.000000" stroke-linejoin="round"/>
		<path id="Vector" d="M104.41 182.07L101.22 191.23L113.54 191.23C113.54 191.23 144.1 165.85 146.15 132.15L143.09 131.28C143.09 131.28 138.53 161.25 104.41 182.07Z" stroke="#FFFFFF" stroke-opacity="1.000000" stroke-width="2.000000" stroke-linejoin="round"/>
		<path id="Vector" d="M147 130.88L146.15 132.15L143.09 131.28L143.09 129.12" stroke="#FFFFFF" stroke-opacity="1.000000" stroke-width="2.000000" stroke-linejoin="round" stroke-linecap="round"/>
		<path id="Vector" d="M137.96 123.18C137.96 123.18 137.05 127.07 139.27 131.28L145.91 127.53C145.91 127.53 141.99 125.66 141.25 120.39L137.96 123.18Z" stroke="#FFFFFF" stroke-opacity="1.000000" stroke-width="2.000000" stroke-linejoin="round"/>
		<path id="Vector" d="M148.29 132.8C148.29 132.8 155.77 131.51 157.84 127.96L154.71 123.12C154.71 123.12 153.96 126.42 145.91 127.53C145.91 127.53 146.56 131.06 148.29 132.8Z" stroke="#FFFFFF" stroke-opacity="1.000000" stroke-width="2.000000" stroke-linejoin="round"/>
		<path id="Vector" d="M163.6 129.45C163.6 129.45 170.17 131.22 174.63 140.92C175.63 143.1 178.61 149.3 180.13 152.31" stroke="#FFFFFF" stroke-opacity="1.000000" stroke-width="2.000000" stroke-linejoin="round" stroke-linecap="round"/>
	</g>
</svg>
